Oxygen-Heavy.ufo
<glyph name="exclam" format="1">
  <advance width="444"/>
  <unicode hex="0021"/>
  <outline>
    <contour>
      <point x="177" y="449" type="line"/>
      <point x="285" y="449" type="line"/>
      <point x="348" y="1235" type="line"/>
      <point x="348" y="1457" type="line"/>
      <point x="107" y="1457" type="line"/>
      <point x="107" y="1235" type="line"/>
    </contour>
    <contour>
      <point x="223" y="-18" type="curve" smooth="yes"/>
      <point x="310" y="-18"/>
      <point x="376" y="52"/>
      <point x="376" y="134" type="curve" smooth="yes"/>
      <point x="376" y="217"/>
      <point x="310" y="289"/>
      <point x="223" y="289" type="curve" smooth="yes"/>
      <point x="135" y="289"/>
      <point x="68" y="217"/>
      <point x="68" y="134" type="curve" smooth="yes"/>
      <point x="68" y="52"/>
      <point x="135" y="-18"/>
    </contour>
  </outline>
</glyph>
<glyph name="quotedbl" format="1">
  <advance width="784"/>
  <unicode hex="0022"/>
  <outline>
    <contour>
      <point x="143" y="954" type="line"/>
      <point x="303" y="954" type="line"/>
      <point x="333" y="1470" type="line"/>
      <point x="108" y="1470" type="line"/>
    </contour>
    <contour>
      <point x="488" y="954" type="line"/>
      <point x="647" y="954" type="line"/>
      <point x="678" y="1470" type="line"/>
      <point x="455" y="1470" type="line"/>
    </contour>
  </outline>
</glyph>
<glyph name="parenleft" format="1">
  <advance width="650"/>
  <unicode hex="0028"/>
  <outline>
    <contour>
      <point x="376" y="-276" type="curve"/>
      <point x="611" y="-276" type="line"/>
      <point x="503" y="-122"/>
      <point x="342" y="246"/>
      <point x="342" y="599" type="curve" smooth="yes"/>
      <point x="342" y="956"/>
      <point x="500" y="1327"/>
      <point x="612" y="1488" type="curve"/>
      <point x="375" y="1488" type="line"/>
      <point x="206" y="1251"/>
      <point x="92" y="952"/>
      <point x="92" y="597" type="curve" smooth="yes"/>
      <point x="92" y="247"/>
      <point x="207" y="-45"/>
    </contour>
  </outline>
</glyph>
<glyph name="parenright" format="1">
  <advance width="650"/>
  <unicode hex="0029"/>
  <outline>
    <contour>
      <point x="40" y="-276" type="curve"/>
      <point x="275" y="-276" type="line"/>
      <point x="443" y="-46"/>
      <point x="558" y="245"/>
      <point x="558" y="597" type="curve" smooth="yes"/>
      <point x="558" y="950"/>
      <point x="444" y="1250"/>
      <point x="275" y="1488" type="curve"/>
      <point x="39" y="1488" type="line"/>
      <point x="151" y="1327"/>
      <point x="309" y="956"/>
      <point x="309" y="599" type="curve" smooth="yes"/>
      <point x="309" y="245"/>
      <point x="147" y="-122"/>
    </contour>
  </outline>
</glyph>
<glyph name="plus" format="1">
  <advance width="1181"/>
  <unicode hex="002B"/>
  <outline>
    <contour>
      <point x="491" y="146" type="line"/>
      <point x="691" y="146" type="line"/>
      <point x="691" y="554" type="line"/>
      <point x="1098" y="554" type="line"/>
      <point x="1098" y="745" type="line"/>
      <point x="692" y="745" type="line"/>
      <point x="692" y="1153" type="line"/>
      <point x="492" y="1153" type="line"/>
      <point x="492" y="745" type="line"/>
      <point x="83" y="745" type="line"/>
      <point x="83" y="554" type="line"/>
      <point x="491" y="554" type="line"/>
    </contour>
  </outline>
</glyph>
<glyph name="slash" format="1">
  <advance width="949"/>
  <unicode hex="002F"/>
  <outline>
    <contour>
      <point x="52" y="-188" type="line"/>
      <point x="266" y="-188" type="line"/>
      <point x="892" y="1490" type="line"/>
      <point x="674" y="1490" type="line"/>
    </contour>
  </outline>
</glyph>
<glyph name="zero" format="1">
  <advance width="1296"/>
  <unicode hex="0030"/>
  <outline>
    <contour>
      <point x="649" y="188" type="curve" smooth="yes"/>
      <point x="426" y="188"/>
      <point x="370" y="464"/>
      <point x="370" y="743" type="curve"/>
      <point x="372" y="1016"/>
      <point x="428" y="1281"/>
      <point x="649" y="1281" type="curve" smooth="yes"/>
      <point x="872" y="1281"/>
      <point x="927" y="1015"/>
      <point x="927" y="740" type="curve" smooth="yes"/>
      <point x="927" y="462"/>
      <point x="872" y="188"/>
    </contour>
    <contour>
      <point x="649" y="-21" type="curve" smooth="yes"/>
      <point x="1059" y="-21"/>
      <point x="1199" y="336"/>
      <point x="1199" y="732" type="curve" smooth="yes"/>
      <point x="1199" y="1133"/>
      <point x="1054" y="1489"/>
      <point x="649" y="1489" type="curve" smooth="yes"/>
      <point x="245" y="1489"/>
      <point x="98" y="1136"/>
      <point x="98" y="732" type="curve" smooth="yes"/>
      <point x="98" y="336"/>
      <point x="240" y="-21"/>
    </contour>
  </outline>
</glyph>
<glyph name="one" format="1">
  <advance width="687"/>
  <unicode hex="0031"/>
  <outline>
    <contour>
      <point x="303" y="1" type="line"/>
      <point x="557" y="1" type="line"/>
      <point x="557" y="1459" type="line"/>
      <point x="336" y="1459" type="line"/>
      <point x="317" y="1445"/>
      <point x="64" y="1319"/>
      <point x="43" y="1310" type="curve"/>
      <point x="43" y="1108" type="line"/>
      <point x="60" y="1114"/>
      <point x="284" y="1206"/>
      <point x="303" y="1218" type="curve"/>
    </contour>
  </outline>
</glyph>
<glyph name="two" format="1">
  <advance width="1053"/>
  <unicode hex="0032"/>
  <outline>
    <contour>
      <point x="69" y="0" type="line"/>
      <point x="940" y="0" type="line"/>
      <point x="958" y="197" type="line"/>
      <point x="369" y="197" type="line"/>
      <point x="690" y="531" type="line" smooth="yes"/>
      <point x="819" y="665"/>
      <point x="968" y="886"/>
      <point x="968" y="1059" type="curve" smooth="yes"/>
      <point x="968" y="1331"/>
      <point x="761" y="1489"/>
      <point x="482" y="1489" type="curve" smooth="yes"/>
      <point x="298" y="1489"/>
      <point x="176" y="1440"/>
      <point x="74" y="1349" type="curve"/>
      <point x="150" y="1152" type="line"/>
      <point x="223" y="1217"/>
      <point x="338" y="1280"/>
      <point x="467" y="1280" type="curve" smooth="yes"/>
      <point x="599" y="1280"/>
      <point x="698" y="1184"/>
      <point x="698" y="1057" type="curve" smooth="yes"/>
      <point x="698" y="957"/>
      <point x="627" y="825"/>
      <point x="533" y="724" type="curve" smooth="yes"/>
      <point x="63" y="216" type="line"/>
    </contour>
  </outline>
</glyph>
<glyph name="three" format="1">
  <advance width="1077"/>
  <unicode hex="0033"/>
  <outline>
    <contour>
      <point x="485" y="-21" type="curve" smooth="yes"/>
      <point x="775" y="-21"/>
      <point x="1009" y="123"/>
      <point x="1009" y="398" type="curve" smooth="yes"/>
      <point x="1009" y="577"/>
      <point x="912" y="733"/>
      <point x="728" y="770" type="curve"/>
      <point x="885" y="821"/>
      <point x="968" y="938"/>
      <point x="968" y="1097" type="curve" smooth="yes"/>
      <point x="968" y="1327"/>
      <point x="772" y="1489"/>
      <point x="493" y="1489" type="curve" smooth="yes"/>
      <point x="306" y="1489"/>
      <point x="174" y="1447"/>
      <point x="62" y="1378" type="curve"/>
      <point x="134" y="1187" type="line"/>
      <point x="219" y="1242"/>
      <point x="336" y="1281"/>
      <point x="469" y="1281" type="curve" smooth="yes"/>
      <point x="631" y="1281"/>
      <point x="712" y="1181"/>
      <point x="712" y="1076" type="curve" smooth="yes"/>
      <point x="712" y="903"/>
      <point x="551" y="867"/>
      <point x="338" y="866" type="curve" smooth="yes"/>
      <point x="334" y="866"/>
      <point x="286" y="866"/>
      <point x="282" y="866" type="curve"/>
      <point x="282" y="663" type="line"/>
      <point x="287" y="663"/>
      <point x="336" y="663"/>
      <point x="340" y="663" type="curve"/>
      <point x="581" y="658"/>
      <point x="741" y="622"/>
      <point x="741" y="411" type="curve" smooth="yes"/>
      <point x="741" y="279"/>
      <point x="639" y="188"/>
      <point x="486" y="188" type="curve" smooth="yes"/>
      <point x="349" y="188"/>
      <point x="208" y="232"/>
      <point x="134" y="292" type="curve"/>
      <point x="62" y="103" type="line"/>
      <point x="151" y="26"/>
      <point x="313" y="-21"/>
    </contour>
  </outline>
</glyph>
<glyph name="five" format="1">
  <advance width="1137"/>
  <unicode hex="0035"/>
  <outline>
    <contour>
      <point x="542" y="-21" type="curve" smooth="yes"/>
      <point x="874" y="-21"/>
      <point x="1056" y="178"/>
      <point x="1056" y="468" type="curve" smooth="yes"/>
      <point x="1056" y="745"/>
      <point x="877" y="937"/>
      <point x="607" y="937" type="curve" smooth="yes"/>
      <point x="548" y="937"/>
      <point x="486" y="923"/>
      <point x="424" y="891" type="curve"/>
      <point x="425" y="925"/>
      <point x="436" y="1216"/>
      <point x="438" y="1251" type="curve"/>
      <point x="986" y="1251" type="line"/>
      <point x="1001" y="1457" type="line"/>
      <point x="204" y="1457" type="line"/>
      <point x="167" y="660" type="line"/>
      <point x="342" y="625" type="line"/>
      <point x="409" y="700"/>
      <point x="488" y="733"/>
      <point x="564" y="733" type="curve" smooth="yes"/>
      <point x="700" y="733"/>
      <point x="798" y="631"/>
      <point x="798" y="470" type="curve" smooth="yes"/>
      <point x="798" y="311"/>
      <point x="708" y="190"/>
      <point x="515" y="190" type="curve" smooth="yes"/>
      <point x="346" y="190"/>
      <point x="200" y="295"/>
      <point x="184" y="307" type="curve"/>
      <point x="104" y="119" type="line"/>
      <point x="126" y="100"/>
      <point x="323" y="-21"/>
    </contour>
  </outline>
</glyph>
<glyph name="nine" format="1">
  <advance width="1216"/>
  <unicode hex="0039"/>
  <outline>
    <contour>
      <point x="236" y="0" type="line"/>
      <point x="563" y="0" type="line"/>
      <point x="563" y="0"/>
      <point x="954" y="519"/>
      <point x="978" y="550" type="curve"/>
      <point x="1077" y="686"/>
      <point x="1166" y="821"/>
      <point x="1166" y="1009" type="curve" smooth="yes"/>
      <point x="1166" y="1301"/>
      <point x="940" y="1489"/>
      <point x="616" y="1489" type="curve" smooth="yes"/>
      <point x="303" y="1489"/>
      <point x="71" y="1300"/>
      <point x="71" y="1012" type="curve" smooth="yes"/>
      <point x="71" y="737"/>
      <point x="282" y="554"/>
      <point x="568" y="554" type="curve" smooth="yes"/>
      <point x="615" y="554"/>
      <point x="645" y="563"/>
      <point x="686" y="577" type="curve"/>
    </contour>
    <contour>
      <point x="625" y="739" type="curve" smooth="yes"/>
      <point x="436" y="739"/>
      <point x="346" y="851"/>
      <point x="346" y="1018" type="curve" smooth="yes"/>
      <point x="346" y="1179"/>
      <point x="450" y="1289"/>
      <point x="629" y="1289" type="curve" smooth="yes"/>
      <point x="804" y="1289"/>
      <point x="896" y="1183"/>
      <point x="896" y="1023" type="curve" smooth="yes"/>
      <point x="896" y="859"/>
      <point x="819" y="739"/>
    </contour>
  </outline>
</glyph>
<glyph name="colon" format="1">
  <advance width="459"/>
  <unicode hex="003A"/>
  <outline>
    <contour>
      <point x="100" y="-6" type="line"/>
      <point x="365" y="-6" type="line"/>
      <point x="365" y="260" type="line"/>
      <point x="100" y="260" type="line"/>
    </contour>
    <contour>
      <point x="100" y="841" type="line"/>
      <point x="365" y="841" type="line"/>
      <point x="365" y="1106" type="line"/>
      <point x="100" y="1106" type="line"/>
    </contour>
  </outline>
</glyph>
<glyph name="greater" format="1">
  <advance width="1197"/>
  <unicode hex="003E"/>
  <outline>
    <contour>
      <point x="119" y="198" type="line"/>
      <point x="1086" y="645" type="line"/>
      <point x="1086" y="769" type="line"/>
      <point x="119" y="1253" type="line"/>
      <point x="119" y="1047" type="line"/>
      <point x="822" y="713" type="line"/>
      <point x="119" y="404" type="line"/>
    </contour>
  </outline>
</glyph>
<glyph name="B" format="1">
  <advance width="1332"/>
  <unicode hex="0042"/>
  <outline>
    <contour>
      <point x="157" y="0" type="line"/>
      <point x="701" y="0" type="line" smooth="yes"/>
      <point x="1041" y="0"/>
      <point x="1253" y="145"/>
      <point x="1253" y="425" type="curve" smooth="yes"/>
      <point x="1253" y="605"/>
      <point x="1170" y="730"/>
      <point x="992" y="779" type="curve"/>
      <point x="1172" y="845"/>
      <point x="1199" y="1004"/>
      <point x="1199" y="1097" type="curve" smooth="yes"/>
      <point x="1199" y="1369"/>
      <point x="997" y="1465"/>
      <point x="622" y="1465" type="curve" smooth="yes"/>
      <point x="157" y="1465" type="line"/>
    </contour>
    <contour>
      <point x="430" y="207" type="line"/>
      <point x="430" y="668" type="line"/>
      <point x="657" y="668" type="line" smooth="yes"/>
      <point x="870" y="668"/>
      <point x="975" y="609"/>
      <point x="975" y="442" type="curve" smooth="yes"/>
      <point x="975" y="275"/>
      <point x="868" y="207"/>
      <point x="664" y="207" type="curve" smooth="yes"/>
    </contour>
    <contour>
      <point x="430" y="871" type="line"/>
      <point x="430" y="1255" type="line"/>
      <point x="606" y="1255" type="line" smooth="yes"/>
      <point x="818" y="1255"/>
      <point x="929" y="1222"/>
      <point x="929" y="1062" type="curve" smooth="yes"/>
      <point x="929" y="919"/>
      <point x="835" y="871"/>
      <point x="661" y="871" type="curve" smooth="yes"/>
    </contour>
  </outline>
</glyph>
<glyph name="D" format="1">
  <advance width="1514"/>
  <unicode hex="0044"/>
  <outline>
    <contour>
      <point x="431" y="218" type="line"/>
      <point x="431" y="1246" type="line"/>
      <point x="595" y="1246" type="line" smooth="yes"/>
      <point x="950" y="1246"/>
      <point x="1136" y="1098"/>
      <point x="1136" y="732" type="curve" smooth="yes"/>
      <point x="1136" y="396"/>
      <point x="958" y="218"/>
      <point x="624" y="218" type="curve" smooth="yes"/>
    </contour>
    <contour>
      <point x="159" y="0" type="line"/>
      <point x="608" y="0" type="line" smooth="yes"/>
      <point x="1108" y="0"/>
      <point x="1415" y="259"/>
      <point x="1415" y="738" type="curve" smooth="yes"/>
      <point x="1415" y="1234"/>
      <point x="1090" y="1465"/>
      <point x="583" y="1465" type="curve" smooth="yes"/>
      <point x="159" y="1465" type="line"/>
    </contour>
  </outline>
</glyph>
<glyph name="J" format="1">
  <advance width="634"/>
  <unicode hex="004A"/>
  <outline>
    <contour>
      <point x="-74" y="-322" type="line"/>
      <point x="-48" y="-327"/>
      <point x="-11" y="-330"/>
      <point x="22" y="-330" type="curve" smooth="yes"/>
      <point x="372" y="-330"/>
      <point x="483" y="-180"/>
      <point x="483" y="146" type="curve" smooth="yes"/>
      <point x="483" y="1469" type="line"/>
      <point x="209" y="1469" type="line"/>
      <point x="209" y="128" type="line" smooth="yes"/>
      <point x="209" y="-36"/>
      <point x="176" y="-116"/>
      <point x="20" y="-116" type="curve" smooth="yes"/>
      <point x="-7" y="-116"/>
      <point x="-54" y="-113"/>
      <point x="-85" y="-108" type="curve"/>
    </contour>
  </outline>
</glyph>
<glyph name="L" format="1">
  <advance width="1072"/>
  <unicode hex="004C"/>
  <outline>
    <contour>
      <point x="157" y="0" type="line"/>
      <point x="1035" y="0" type="line"/>
      <point x="1042" y="217" type="line"/>
      <point x="430" y="217" type="line"/>
      <point x="430" y="1465" type="line"/>
      <point x="157" y="1465" type="line"/>
    </contour>
  </outline>
</glyph>
<glyph name="M" format="1">
  <advance width="1841"/>
  <unicode hex="004D"/>
  <outline>
    <contour>
      <point x="158" y="0" type="line"/>
      <point x="402" y="0" type="line"/>
      <point x="402" y="718" type="line"/>
      <point x="394" y="1142" type="line"/>
      <point x="431" y="1032" type="line"/>
      <point x="797" y="100" type="line"/>
      <point x="1030" y="100" type="line"/>
      <point x="1403" y="1027" type="line"/>
      <point x="1440" y="1138" type="line"/>
      <point x="1432" y="721" type="line"/>
      <point x="1432" y="0" type="line"/>
      <point x="1684" y="0" type="line"/>
      <point x="1684" y="1465" type="line"/>
      <point x="1366" y="1465" type="line"/>
      <point x="921" y="408" type="line"/>
      <point x="479" y="1465" type="line"/>
      <point x="158" y="1465" type="line"/>
    </contour>
  </outline>
</glyph>
<glyph name="V" format="1">
  <advance width="1322"/>
  <unicode hex="0056"/>
  <outline>
    <contour>
      <point x="527" y="0" type="line"/>
      <point x="-6" y="1465" type="line"/>
      <point x="274" y="1465" type="line"/>
      <point x="584" y="560" type="line"/>
      <point x="594" y="532"/>
      <point x="658" y="313"/>
      <point x="666" y="286" type="curve"/>
      <point x="669" y="299"/>
      <point x="732" y="520"/>
      <point x="746" y="558" type="curve"/>
      <point x="771" y="630"/>
      <point x="1026" y="1396"/>
      <point x="1051" y="1465" type="curve"/>
      <point x="1328" y="1465" type="line"/>
      <point x="802" y="0" type="line"/>
    </contour>
  </outline>
</glyph>
<glyph name="X" format="1">
  <advance width="1338"/>
  <unicode hex="0058"/>
  <outline>
    <contour>
      <point x="-10" y="0" type="line"/>
      <point x="287" y="0" type="line"/>
      <point x="664" y="569" type="line"/>
      <point x="1033" y="0" type="line"/>
      <point x="1348" y="0" type="line"/>
      <point x="838" y="745" type="line"/>
      <point x="1323" y="1465" type="line"/>
      <point x="1032" y="1465" type="line"/>
      <point x="678" y="920" type="line"/>
      <point x="333" y="1465" type="line"/>
      <point x="27" y="1465" type="line"/>
      <point x="502" y="750" type="line"/>
    </contour>
  </outline>
</glyph>
<glyph name="Y" format="1">
  <advance width="1256"/>
  <unicode hex="0059"/>
  <outline>
    <contour>
      <point x="492" y="0" type="line"/>
      <point x="765" y="0" type="line"/>
      <point x="765" y="585" type="line"/>
      <point x="1271" y="1465" type="line"/>
      <point x="978" y="1465" type="line"/>
      <point x="628" y="832" type="line"/>
      <point x="280" y="1465" type="line"/>
      <point x="-14" y="1465" type="line"/>
      <point x="492" y="581" type="line"/>
    </contour>
  </outline>
</glyph>
<glyph name="Z" format="1">
  <advance width="1209"/>
  <unicode hex="005A"/>
  <outline>
    <contour>
      <point x="62" y="0" type="line"/>
      <point x="1159" y="0" type="line"/>
      <point x="1161" y="217" type="line"/>
      <point x="397" y="217" type="line"/>
      <point x="1155" y="1267" type="line"/>
      <point x="1155" y="1465" type="line"/>
      <point x="88" y="1465" type="line"/>
      <point x="88" y="1247" type="line"/>
      <point x="834" y="1247" type="line"/>
      <point x="62" y="175" type="line"/>
    </contour>
  </outline>
</glyph>
<glyph name="bracketleft" format="1">
  <advance width="650"/>
  <unicode hex="005B"/>
  <outline>
    <contour>
      <point x="135" y="-266" type="line"/>
      <point x="599" y="-266" type="line"/>
      <point x="599" y="-84" type="line"/>
      <point x="388" y="-84" type="line"/>
      <point x="388" y="1327" type="line"/>
      <point x="599" y="1327" type="line"/>
      <point x="599" y="1507" type="line"/>
      <point x="135" y="1507" type="line"/>
    </contour>
  </outline>
</glyph>
<glyph name="grave" format="1">
  <advance width="512"/>
  <unicode hex="0060"/>
  <outline>
    <contour>
      <point x="322" y="1194" type="line"/>
      <point x="485" y="1194" type="line"/>
      <point x="297" y="1577" type="line"/>
      <point x="-9" y="1577" type="line"/>
    </contour>
  </outline>
</glyph>
<glyph name="a" format="1">
  <advance width="1144"/>
  <unicode hex="0061"/>
  <outline>
    <contour>
      <point x="424" y="-21" type="curve" smooth="yes"/>
      <point x="582" y="-21"/>
      <point x="700" y="49"/>
      <point x="775" y="147" type="curve"/>
      <point x="776" y="141"/>
      <point x="817" y="6"/>
      <point x="818" y="0" type="curve"/>
      <point x="1013" y="0" type="line"/>
      <point x="1013" y="717" type="line" smooth="yes"/>
      <point x="1013" y="1007"/>
      <point x="884" y="1126"/>
      <point x="588" y="1126" type="curve" smooth="yes"/>
      <point x="420" y="1126"/>
      <point x="292" y="1096"/>
      <point x="168" y="1043" type="curve"/>
      <point x="170" y="1038"/>
      <point x="229" y="873"/>
      <point x="231" y="867" type="curve"/>
      <point x="335" y="908"/>
      <point x="464" y="936"/>
      <point x="566" y="936" type="curve" smooth="yes"/>
      <point x="688" y="936"/>
      <point x="751" y="881"/>
      <point x="751" y="746" type="curve" smooth="yes"/>
      <point x="751" y="689" type="line"/>
      <point x="675" y="680"/>
      <point x="602" y="674"/>
      <point x="532" y="666" type="curve"/>
      <point x="246" y="638"/>
      <point x="83" y="546"/>
      <point x="83" y="307" type="curve" smooth="yes"/>
      <point x="83" y="87"/>
      <point x="229" y="-21"/>
    </contour>
    <contour>
      <point x="496" y="165" type="curve" smooth="yes"/>
      <point x="395" y="165"/>
      <point x="339" y="217"/>
      <point x="339" y="311" type="curve" smooth="yes"/>
      <point x="339" y="452"/>
      <point x="446" y="505"/>
      <point x="644" y="522" type="curve"/>
      <point x="651" y="523"/>
      <point x="744" y="534"/>
      <point x="750" y="534" type="curve"/>
      <point x="750" y="314" type="line"/>
      <point x="715" y="239"/>
      <point x="626" y="165"/>
    </contour>
  </outline>
</glyph>
<glyph name="b" format="1">
  <advance width="1260"/>
  <unicode hex="0062"/>
  <outline>
    <contour>
      <point x="724" y="-21" type="curve" smooth="yes"/>
      <point x="1004" y="-21"/>
      <point x="1179" y="215"/>
      <point x="1179" y="562" type="curve" smooth="yes"/>
      <point x="1179" y="890"/>
      <point x="1016" y="1126"/>
      <point x="730" y="1126" type="curve" smooth="yes"/>
      <point x="549" y="1126"/>
      <point x="446" y="1027"/>
      <point x="392" y="956" type="curve"/>
      <point x="395" y="1040"/>
      <point x="397" y="1116"/>
      <point x="397" y="1181" type="curve" smooth="yes"/>
      <point x="397" y="1521" type="line"/>
      <point x="134" y="1504" type="line"/>
      <point x="134" y="1" type="line"/>
      <point x="362" y="1" type="line"/>
      <point x="388" y="141" type="line"/>
      <point x="436" y="68"/>
      <point x="562" y="-21"/>
    </contour>
    <contour>
      <point x="660" y="179" type="curve" smooth="yes"/>
      <point x="489" y="179"/>
      <point x="395" y="295"/>
      <point x="395" y="571" type="curve"/>
      <point x="397" y="825"/>
      <point x="502" y="928"/>
      <point x="663" y="928" type="curve" smooth="yes"/>
      <point x="814" y="928"/>
      <point x="917" y="809"/>
      <point x="917" y="558" type="curve" smooth="yes"/>
      <point x="917" y="309"/>
      <point x="811" y="179"/>
    </contour>
  </outline>
</glyph>
<glyph name="c" format="1">
  <advance width="1008"/>
  <unicode hex="0063"/>
  <outline>
    <contour>
      <point x="614" y="-21" type="curve" smooth="yes"/>
      <point x="752" y="-21"/>
      <point x="842" y="5"/>
      <point x="934" y="65" type="curve"/>
      <point x="908" y="265" type="line"/>
      <point x="838" y="219"/>
      <point x="740" y="175"/>
      <point x="634" y="180" type="curve" smooth="yes"/>
      <point x="460" y="188"/>
      <point x="343" y="307"/>
      <point x="343" y="555" type="curve" smooth="yes"/>
      <point x="343" y="804"/>
      <point x="463" y="918"/>
      <point x="636" y="926" type="curve" smooth="yes"/>
      <point x="721" y="930"/>
      <point x="810" y="904"/>
      <point x="883" y="866" type="curve"/>
      <point x="944" y="1042" type="line"/>
      <point x="858" y="1096"/>
      <point x="750" y="1126"/>
      <point x="617" y="1126" type="curve" smooth="yes"/>
      <point x="305" y="1126"/>
      <point x="81" y="928"/>
      <point x="81" y="558" type="curve" smooth="yes"/>
      <point x="81" y="181"/>
      <point x="281" y="-21"/>
    </contour>
  </outline>
</glyph>
<glyph name="d" format="1">
  <advance width="1260"/>
  <unicode hex="0064"/>
  <outline>
    <contour>
      <point x="541" y="-20" type="curve" smooth="yes"/>
      <point x="751" y="-20"/>
      <point x="823" y="77"/>
      <point x="867" y="150" type="curve"/>
      <point x="897" y="0" type="line"/>
      <point x="1125" y="0" type="line"/>
      <point x="1125" y="1521" type="line"/>
      <point x="862" y="1504" type="line"/>
      <point x="862" y="1150" type="line" smooth="yes"/>
      <point x="862" y="1099"/>
      <point x="866" y="1019"/>
      <point x="872" y="960" type="curve"/>
      <point x="833" y="1026"/>
      <point x="745" y="1126"/>
      <point x="541" y="1126" type="curve" smooth="yes"/>
      <point x="251" y="1126"/>
      <point x="81" y="896"/>
      <point x="81" y="559" type="curve" smooth="yes"/>
      <point x="81" y="212"/>
      <point x="252" y="-20"/>
    </contour>
    <contour>
      <point x="604" y="179" type="curve" smooth="yes"/>
      <point x="449" y="179"/>
      <point x="343" y="302"/>
      <point x="343" y="553" type="curve" smooth="yes"/>
      <point x="343" y="807"/>
      <point x="451" y="925"/>
      <point x="602" y="925" type="curve" smooth="yes"/>
      <point x="776" y="925"/>
      <point x="871" y="814"/>
      <point x="871" y="537" type="curve"/>
      <point x="869" y="283"/>
      <point x="769" y="179"/>
    </contour>
  </outline>
</glyph>
<glyph name="g" format="1">
  <advance width="1268"/>
  <unicode hex="0067"/>
  <outline>
    <contour>
      <point x="274" y="-455" type="line"/>
      <point x="274" y="-455"/>
      <point x="399" y="-493"/>
      <point x="567" y="-493" type="curve" smooth="yes"/>
      <point x="992" y="-493"/>
      <point x="1143" y="-200"/>
      <point x="1143" y="187" type="curve" smooth="yes"/>
      <point x="1143" y="1099" type="line"/>
      <point x="908" y="1099" type="line"/>
      <point x="890" y="949" type="line"/>
      <point x="834" y="1058"/>
      <point x="723" y="1126"/>
      <point x="561" y="1126" type="curve" smooth="yes"/>
      <point x="300" y="1126"/>
      <point x="75" y="926"/>
      <point x="75" y="562" type="curve" smooth="yes"/>
      <point x="75" y="229"/>
      <point x="285" y="0"/>
      <point x="574" y="0" type="curve" smooth="yes"/>
      <point x="750" y="0"/>
      <point x="850" y="97"/>
      <point x="879" y="182" type="curve"/>
      <point x="879" y="182"/>
      <point x="886" y="128"/>
      <point x="886" y="86" type="curve" smooth="yes"/>
      <point x="886" y="-111"/>
      <point x="794" y="-288"/>
      <point x="538" y="-288" type="curve" smooth="yes"/>
      <point x="425" y="-288"/>
      <point x="290" y="-256"/>
      <point x="290" y="-256" type="curve"/>
    </contour>
    <contour>
      <point x="437" y="183"/>
      <point x="339" y="357"/>
      <point x="339" y="562" type="curve" smooth="yes"/>
      <point x="339" y="777"/>
      <point x="432" y="925"/>
      <point x="630" y="925" type="curve"/>
      <point x="802" y="923"/>
      <point x="890" y="795"/>
      <point x="890" y="573" type="curve" smooth="yes"/>
      <point x="890" y="569"/>
      <point x="890" y="546"/>
      <point x="890" y="542" type="curve" smooth="yes"/>
      <point x="888" y="334"/>
      <point x="819" y="183"/>
      <point x="616" y="183" type="curve" smooth="yes"/>
    </contour>
  </outline>
</glyph>
<glyph name="l" format="1">
  <advance width="691"/>
  <unicode hex="006C"/>
  <outline>
    <contour>
      <point x="503" y="-15" type="curve" smooth="yes"/>
      <point x="585" y="-15"/>
      <point x="659" y="4"/>
      <point x="659" y="4" type="curve"/>
      <point x="628" y="186" type="line"/>
      <point x="628" y="186"/>
      <point x="586" y="178"/>
      <point x="549" y="178" type="curve" smooth="yes"/>
      <point x="458" y="178"/>
      <point x="396" y="198"/>
      <point x="396" y="421" type="curve" smooth="yes"/>
      <point x="396" y="1521" type="line"/>
      <point x="133" y="1504" type="line"/>
      <point x="133" y="434" type="line" smooth="yes"/>
      <point x="133" y="129"/>
      <point x="198" y="-15"/>
    </contour>
  </outline>
</glyph>
<glyph name="n" format="1">
  <advance width="1255"/>
  <unicode hex="006E"/>
  <outline>
    <contour>
      <point x="132" y="0" type="line"/>
      <point x="396" y="0" type="line"/>
      <point x="396" y="534" type="line" smooth="yes"/>
      <point x="396" y="629"/>
      <point x="399" y="709"/>
      <point x="415" y="775" type="curve"/>
      <point x="456" y="861"/>
      <point x="556" y="927"/>
      <point x="673" y="927" type="curve" smooth="yes"/>
      <point x="825" y="927"/>
      <point x="865" y="826"/>
      <point x="866" y="662" type="curve" smooth="yes"/>
      <point x="866" y="651"/>
      <point x="866" y="0"/>
      <point x="866" y="0" type="curve"/>
      <point x="1130" y="0" type="line"/>
      <point x="1130" y="695" type="line" smooth="yes"/>
      <point x="1130" y="969"/>
      <point x="1007" y="1126"/>
      <point x="747" y="1126" type="curve" smooth="yes"/>
      <point x="581" y="1126"/>
      <point x="467" y="1052"/>
      <point x="374" y="960" type="curve"/>
      <point x="345" y="1099" type="line"/>
      <point x="132" y="1099" type="line"/>
    </contour>
  </outline>
</glyph>
<glyph name="p" format="1">
  <advance width="1256"/>
  <unicode hex="0070"/>
  <outline>
    <contour>
      <point x="132" y="-457" type="line"/>
      <point x="396" y="-444" type="line"/>
      <point x="396" y="-28" type="line" smooth="yes"/>
      <point x="396" y="10"/>
      <point x="394" y="64"/>
      <point x="388" y="133" type="curve"/>
      <point x="461" y="42"/>
      <point x="575" y="-21"/>
      <point x="717" y="-21" type="curve" smooth="yes"/>
      <point x="1005" y="-21"/>
      <point x="1176" y="221"/>
      <point x="1176" y="555" type="curve" smooth="yes"/>
      <point x="1176" y="876"/>
      <point x="1015" y="1126"/>
      <point x="741" y="1126" type="curve" smooth="yes"/>
      <point x="587" y="1126"/>
      <point x="445" y="1044"/>
      <point x="387" y="960" type="curve"/>
      <point x="359" y="1099" type="line"/>
      <point x="132" y="1099" type="line"/>
    </contour>
    <contour>
      <point x="662" y="180" type="curve" smooth="yes"/>
      <point x="489" y="180"/>
      <point x="394" y="296"/>
      <point x="394" y="574" type="curve"/>
      <point x="396" y="823"/>
      <point x="495" y="927"/>
      <point x="657" y="927" type="curve" smooth="yes"/>
      <point x="811" y="927"/>
      <point x="913" y="811"/>
      <point x="913" y="557" type="curve" smooth="yes"/>
      <point x="913" y="311"/>
      <point x="814" y="180"/>
    </contour>
  </outline>
</glyph>
<glyph name="r" format="1">
  <advance width="798"/>
  <unicode hex="0072"/>
  <outline>
    <contour>
      <point x="134" y="0" type="curve"/>
      <point x="397" y="0" type="line"/>
      <point x="397" y="595" type="line" smooth="yes"/>
      <point x="397" y="771"/>
      <point x="485" y="886"/>
      <point x="684" y="886" type="curve" smooth="yes"/>
      <point x="713" y="886"/>
      <point x="741" y="884"/>
      <point x="767" y="880" type="curve"/>
      <point x="772" y="1099" type="line"/>
      <point x="751" y="1103"/>
      <point x="728" y="1104"/>
      <point x="702" y="1104" type="curve" smooth="yes"/>
      <point x="565" y="1104"/>
      <point x="459" y="1044"/>
      <point x="389" y="931" type="curve"/>
      <point x="355" y="1099" type="line"/>
      <point x="134" y="1099" type="line"/>
      <point x="134" y="1078"/>
      <point x="134" y="0"/>
    </contour>
  </outline>
</glyph>
<glyph name="s" format="1">
  <advance width="985"/>
  <unicode hex="0073"/>
  <outline>
    <contour>
      <point x="484" y="-20" type="curve" smooth="yes"/>
      <point x="756" y="-20"/>
      <point x="911" y="105"/>
      <point x="911" y="325" type="curve" smooth="yes"/>
      <point x="911" y="495"/>
      <point x="811" y="586"/>
      <point x="619" y="656" type="curve" smooth="yes"/>
      <point x="597" y="664"/>
      <point x="578" y="671"/>
      <point x="559" y="678" type="curve" smooth="yes"/>
      <point x="409" y="733"/>
      <point x="348" y="759"/>
      <point x="348" y="832" type="curve" smooth="yes"/>
      <point x="348" y="905"/>
      <point x="413" y="938"/>
      <point x="515" y="938" type="curve" smooth="yes"/>
      <point x="620" y="938"/>
      <point x="730" y="904"/>
      <point x="814" y="865" type="curve"/>
      <point x="879" y="1047" type="line"/>
      <point x="773" y="1100"/>
      <point x="652" y="1126"/>
      <point x="511" y="1126" type="curve" smooth="yes"/>
      <point x="255" y="1126"/>
      <point x="98" y="1019"/>
      <point x="98" y="816" type="curve" smooth="yes"/>
      <point x="99" y="644"/>
      <point x="191" y="563"/>
      <point x="385" y="488" type="curve" smooth="yes"/>
      <point x="398" y="483"/>
      <point x="430" y="471"/>
      <point x="442" y="466" type="curve" smooth="yes"/>
      <point x="596" y="406"/>
      <point x="661" y="376"/>
      <point x="661" y="295" type="curve" smooth="yes"/>
      <point x="659" y="209"/>
      <point x="588" y="167"/>
      <point x="476" y="167" type="curve" smooth="yes"/>
      <point x="357" y="167"/>
      <point x="203" y="217"/>
      <point x="122" y="261" type="curve"/>
      <point x="95" y="63" type="line"/>
      <point x="188" y="10"/>
      <point x="317" y="-20"/>
    </contour>
  </outline>
</glyph>
<glyph name="u" format="1">
  <advance width="1255"/>
  <unicode hex="0075"/>
  <outline>
    <contour>
      <point x="1130" y="1098" type="line"/>
      <point x="866" y="1098" type="line"/>
      <point x="866" y="565" type="line" smooth="yes"/>
      <point x="866" y="470"/>
      <point x="863" y="390"/>
      <point x="847" y="324" type="curve"/>
      <point x="806" y="238"/>
      <point x="706" y="172"/>
      <point x="589" y="172" type="curve" smooth="yes"/>
      <point x="437" y="172"/>
      <point x="397" y="273"/>
      <point x="396" y="437" type="curve" smooth="yes"/>
      <point x="396" y="448"/>
      <point x="396" y="1098"/>
      <point x="396" y="1098" type="curve"/>
      <point x="132" y="1098" type="line"/>
      <point x="132" y="404" type="line" smooth="yes"/>
      <point x="132" y="130"/>
      <point x="255" y="-27"/>
      <point x="515" y="-27" type="curve" smooth="yes"/>
      <point x="681" y="-27"/>
      <point x="798" y="48"/>
      <point x="888" y="153" type="curve"/>
      <point x="917" y="0" type="line"/>
      <point x="1130" y="0" type="line"/>
    </contour>
  </outline>
</glyph>
<glyph name="w" format="1">
  <advance width="1715"/>
  <unicode hex="0077"/>
  <outline>
    <contour>
      <point x="346" y="0" type="line"/>
      <point x="605" y="0" type="line"/>
      <point x="629" y="73"/>
      <point x="835" y="781"/>
      <point x="856" y="857" type="curve"/>
      <point x="879" y="783"/>
      <point x="1072" y="73"/>
      <point x="1095" y="0" type="curve"/>
      <point x="1357" y="0" type="line"/>
      <point x="1702" y="1099" type="line"/>
      <point x="1437" y="1099" type="line"/>
      <point x="1220" y="297" type="line"/>
      <point x="1199" y="369"/>
      <point x="1018" y="1028"/>
      <point x="996" y="1099" type="curve"/>
      <point x="726" y="1099" type="line"/>
      <point x="703" y="1028"/>
      <point x="514" y="367"/>
      <point x="492" y="294" type="curve"/>
      <point x="281" y="1099" type="line"/>
      <point x="13" y="1099" type="line"/>
    </contour>
  </outline>
</glyph>
<glyph name="y" format="1">
  <advance width="1117"/>
  <unicode hex="0079"/>
  <outline>
    <contour>
      <point x="192" y="-462" type="curve" smooth="yes"/>
      <point x="416" y="-462"/>
      <point x="553" y="-368"/>
      <point x="649" y="-118" type="curve" smooth="yes"/>
      <point x="653" y="-109"/>
      <point x="1111" y="1099"/>
      <point x="1111" y="1099" type="curve"/>
      <point x="829" y="1099" type="line"/>
      <point x="765" y="902"/>
      <point x="620" y="507"/>
      <point x="563" y="303" type="curve"/>
      <point x="275" y="1099" type="line"/>
      <point x="-6" y="1099" type="line"/>
      <point x="435" y="20" type="line"/>
      <point x="421" y="-23"/>
      <point x="409" y="-60"/>
      <point x="396" y="-92" type="curve" smooth="yes"/>
      <point x="346" y="-218"/>
      <point x="278" y="-256"/>
      <point x="160" y="-256" type="curve" smooth="yes"/>
      <point x="121" y="-256"/>
      <point x="80" y="-255"/>
      <point x="42" y="-250" type="curve"/>
      <point x="55" y="-454" type="line"/>
      <point x="100" y="-459"/>
      <point x="145" y="-462"/>
    </contour>
  </outline>
</glyph>
<glyph name="bar" format="1">
  <advance width="759"/>
  <unicode hex="007C"/>
  <outline>
    <contour>
      <point x="278" y="-379" type="line"/>
      <point x="481" y="-379" type="line"/>
      <point x="481" y="1537" type="line"/>
      <point x="278" y="1537" type="line"/>
    </contour>
  </outline>
</glyph>
<glyph name="exclamdown" format="1">
  <advance width="444"/>
  <unicode hex="00A1"/>
  <outline>
    <contour>
      <point x="107" y="-15" type="line"/>
      <point x="349" y="-15" type="line"/>
      <point x="349" y="207" type="line"/>
      <point x="284" y="993" type="line"/>
      <point x="176" y="993" type="line"/>
      <point x="107" y="207" type="line"/>
    </contour>
    <contour>
      <point x="223" y="1153" type="curve" smooth="yes"/>
      <point x="310" y="1153"/>
      <point x="376" y="1225"/>
      <point x="376" y="1308" type="curve" smooth="yes"/>
      <point x="376" y="1391"/>
      <point x="310" y="1461"/>
      <point x="223" y="1461" type="curve" smooth="yes"/>
      <point x="135" y="1461"/>
      <point x="68" y="1391"/>
      <point x="68" y="1308" type="curve" smooth="yes"/>
      <point x="68" y="1225"/>
      <point x="135" y="1153"/>
    </contour>
  </outline>
</glyph>
<glyph name="copyright" format="1">
  <advance width="1741"/>
  <unicode hex="00A9"/>
  <outline>
    <contour>
      <point x="853" y="254" type="curve" smooth="yes"/>
      <point x="974" y="254"/>
      <point x="1080" y="283"/>
      <point x="1160" y="335" type="curve"/>
      <point x="1116" y="440" type="line"/>
      <point x="1042" y="397"/>
      <point x="946" y="373"/>
      <point x="868" y="373" type="curve" smooth="yes"/>
      <point x="666" y="373"/>
      <point x="537" y="521"/>
      <point x="537" y="742" type="curve" smooth="yes"/>
      <point x="537" y="966"/>
      <point x="664" y="1117"/>
      <point x="864" y="1117" type="curve" smooth="yes"/>
      <point x="941" y="1117"/>
      <point x="1035" y="1095"/>
      <point x="1110" y="1051" type="curve"/>
      <point x="1159" y="1155" type="line"/>
      <point x="1077" y="1210"/>
      <point x="973" y="1237"/>
      <point x="852" y="1237" type="curve" smooth="yes"/>
      <point x="578" y="1237"/>
      <point x="391" y="1018"/>
      <point x="391" y="742" type="curve" smooth="yes"/>
      <point x="391" y="459"/>
      <point x="587" y="254"/>
    </contour>
    <contour>
      <point x="866" y="78" type="curve" smooth="yes"/>
      <point x="483" y="78"/>
      <point x="204" y="375"/>
      <point x="204" y="741" type="curve" smooth="yes"/>
      <point x="204" y="1105"/>
      <point x="483" y="1403"/>
      <point x="865" y="1403" type="curve" smooth="yes"/>
      <point x="1252" y="1403"/>
      <point x="1532" y="1105"/>
      <point x="1532" y="740" type="curve" smooth="yes"/>
      <point x="1532" y="375"/>
      <point x="1253" y="78"/>
    </contour>
    <contour>
      <point x="866" y="-22" type="curve" smooth="yes"/>
      <point x="1290" y="-22"/>
      <point x="1648" y="294"/>
      <point x="1648" y="741" type="curve" smooth="yes"/>
      <point x="1648" y="1186"/>
      <point x="1288" y="1504"/>
      <point x="865" y="1504" type="curve" smooth="yes"/>
      <point x="445" y="1504"/>
      <point x="88" y="1187"/>
      <point x="88" y="741" type="curve" smooth="yes"/>
      <point x="88" y="294"/>
      <point x="446" y="-22"/>
    </contour>
  </outline>
</glyph>
<glyph name="ordfeminine" format="1">
  <advance width="756"/>
  <unicode hex="00AA"/>
  <outline>
    <contour>
      <point x="298" y="749" type="curve" smooth="yes"/>
      <point x="379" y="749"/>
      <point x="474" y="789"/>
      <point x="517" y="848" type="curve"/>
      <point x="535" y="763" type="line"/>
      <point x="670" y="763" type="line"/>
      <point x="669" y="784"/>
      <point x="669" y="878"/>
      <point x="669" y="881" type="curve"/>
      <point x="669" y="1267" type="line" smooth="yes"/>
      <point x="669" y="1450"/>
      <point x="546" y="1512"/>
      <point x="398" y="1512" type="curve" smooth="yes"/>
      <point x="294" y="1512"/>
      <point x="182" y="1485"/>
      <point x="90" y="1436" type="curve"/>
      <point x="132" y="1325" type="line"/>
      <point x="232" y="1365"/>
      <point x="316" y="1383"/>
      <point x="382" y="1383" type="curve" smooth="yes"/>
      <point x="466" y="1383"/>
      <point x="504" y="1345"/>
      <point x="505" y="1242" type="curve" smooth="yes"/>
      <point x="505" y="1241"/>
      <point x="505" y="1211"/>
      <point x="505" y="1210" type="curve"/>
      <point x="322" y="1189"/>
      <point x="74" y="1173"/>
      <point x="74" y="962" type="curve" smooth="yes"/>
      <point x="74" y="822"/>
      <point x="177" y="749"/>
    </contour>
    <contour>
      <point x="112" y="535" type="line"/>
      <point x="673" y="535" type="line"/>
      <point x="673" y="654" type="line"/>
      <point x="112" y="654" type="line"/>
    </contour>
    <contour>
      <point x="317" y="877" type="curve" smooth="yes"/>
      <point x="269" y="877"/>
      <point x="231" y="907"/>
      <point x="231" y="967" type="curve" smooth="yes"/>
      <point x="231" y="1064"/>
      <point x="340" y="1082"/>
      <point x="505" y="1105" type="curve"/>
      <point x="505" y="992" type="line"/>
      <point x="455" y="919"/>
      <point x="384" y="877"/>
    </contour>
  </outline>
</glyph>
<glyph name="macron" format="1">
  <advance width="910"/>
  <unicode hex="00AF"/>
  <outline>
    <contour>
      <point x="106" y="1371" type="line"/>
      <point x="814" y="1371" type="line"/>
      <point x="814" y="1528" type="line"/>
      <point x="106" y="1528" type="line"/>
    </contour>
  </outline>
</glyph>
<glyph name="degree" format="1">
  <advance width="850"/>
  <unicode hex="00B0"/>
  <outline>
    <contour>
      <point x="427" y="999" type="curve" smooth="yes"/>
      <point x="343" y="999"/>
      <point x="263" y="1059"/>
      <point x="263" y="1164" type="curve" smooth="yes"/>
      <point x="263" y="1266"/>
      <point x="344" y="1324"/>
      <point x="428" y="1324" type="curve" smooth="yes"/>
      <point x="511" y="1324"/>
      <point x="590" y="1266"/>
      <point x="590" y="1164" type="curve" smooth="yes"/>
      <point x="590" y="1059"/>
      <point x="511" y="999"/>
    </contour>
    <contour>
      <point x="427" y="870" type="curve" smooth="yes"/>
      <point x="629" y="870"/>
      <point x="742" y="1016"/>
      <point x="742" y="1166" type="curve" smooth="yes"/>
      <point x="742" y="1319"/>
      <point x="625" y="1454"/>
      <point x="427" y="1454" type="curve" smooth="yes"/>
      <point x="226" y="1454"/>
      <point x="111" y="1319"/>
      <point x="111" y="1166" type="curve" smooth="yes"/>
      <point x="111" y="1015"/>
      <point x="224" y="870"/>
    </contour>
  </outline>
</glyph>
<glyph name="uni00B3" format="1">
  <advance width="801"/>
  <unicode hex="00B3"/>
  <outline>
    <contour>
      <point x="380" y="602" type="curve" smooth="yes"/>
      <point x="542" y="602"/>
      <point x="684" y="695"/>
      <point x="684" y="875" type="curve" smooth="yes"/>
      <point x="684" y="973"/>
      <point x="613" y="1051"/>
      <point x="538" y="1081" type="curve"/>
      <point x="624" y="1109"/>
      <point x="663" y="1169"/>
      <point x="665" y="1241" type="curve"/>
      <point x="665" y="1400"/>
      <point x="535" y="1469"/>
      <point x="391" y="1469" type="curve" smooth="yes"/>
      <point x="290" y="1469"/>
      <point x="200" y="1436"/>
      <point x="131" y="1380" type="curve"/>
      <point x="179" y="1269" type="line"/>
      <point x="221" y="1300"/>
      <point x="309" y="1332"/>
      <point x="382" y="1332" type="curve" smooth="yes"/>
      <point x="461" y="1332"/>
      <point x="495" y="1291"/>
      <point x="495" y="1237" type="curve" smooth="yes"/>
      <point x="495" y="1178"/>
      <point x="451" y="1139"/>
      <point x="339" y="1139" type="curve" smooth="yes"/>
      <point x="260" y="1139" type="line"/>
      <point x="260" y="1003" type="line"/>
      <point x="337" y="1004" type="line"/>
      <point x="452" y="1004"/>
      <point x="525" y="964"/>
      <point x="525" y="876" type="curve" smooth="yes"/>
      <point x="525" y="784"/>
      <point x="467" y="739"/>
      <point x="379" y="739" type="curve" smooth="yes"/>
      <point x="314" y="739"/>
      <point x="221" y="767"/>
      <point x="173" y="811" type="curve"/>
      <point x="124" y="684" type="line"/>
      <point x="199" y="630"/>
      <point x="291" y="602"/>
    </contour>
  </outline>
</glyph>
<glyph name="periodcentered" format="1">
  <advance width="421"/>
  <unicode hex="00B7"/>
  <outline>
    <contour>
      <point x="89" y="487" type="line"/>
      <point x="332" y="487" type="line"/>
      <point x="332" y="739" type="line"/>
      <point x="89" y="739" type="line"/>
    </contour>
  </outline>
</glyph>
<glyph name="uni00B9" format="1">
  <advance width="745"/>
  <unicode hex="00B9"/>
  <outline>
    <contour>
      <point x="151" y="600" type="line"/>
      <point x="626" y="600" type="line"/>
      <point x="626" y="749" type="line"/>
      <point x="485" y="749" type="line"/>
      <point x="485" y="1483" type="line"/>
      <point x="341" y="1484" type="line"/>
      <point x="331" y="1474"/>
      <point x="147" y="1383"/>
      <point x="132" y="1375" type="curve"/>
      <point x="132" y="1227" type="line"/>
      <point x="142" y="1232"/>
      <point x="284" y="1297"/>
      <point x="293" y="1303" type="curve"/>
      <point x="293" y="749" type="line"/>
      <point x="151" y="749" type="line"/>
    </contour>
  </outline>
</glyph>
<glyph name="AE" format="1">
  <advance width="2020"/>
  <unicode hex="00C6"/>
  <outline>
    <contour>
      <point x="37" y="0" type="line"/>
      <point x="341" y="0" type="line"/>
      <point x="545" y="375" type="line"/>
      <point x="1068" y="375" type="line"/>
      <point x="1098" y="0" type="line"/>
      <point x="1911" y="0" type="line"/>
      <point x="1925" y="196" type="line"/>
      <point x="1361" y="196" type="line"/>
      <point x="1322" y="654" type="line"/>
      <point x="1850" y="654" type="line"/>
      <point x="1850" y="850" type="line"/>
      <point x="1302" y="850" type="line"/>
      <point x="1269" y="1284" type="line"/>
      <point x="1875" y="1284" type="line"/>
      <point x="1891" y="1480" type="line"/>
      <point x="880" y="1480" type="line"/>
    </contour>
    <contour>
      <point x="638" y="572" type="line"/>
      <point x="1002" y="1233" type="line"/>
      <point x="1052" y="572" type="line"/>
    </contour>
  </outline>
</glyph>
<glyph name="multiply" format="1">
  <advance width="1400"/>
  <unicode hex="00D7"/>
  <outline>
    <contour>
      <point x="1017" y="147" type="line"/>
      <point x="1153" y="284" type="line"/>
      <point x="1078" y="358"/>
      <point x="935" y="510"/>
      <point x="860" y="583" type="curve"/>
      <point x="1153" y="880" type="line"/>
      <point x="1016" y="1019" type="line"/>
      <point x="716" y="725" type="line"/>
      <point x="414" y="1019" type="line"/>
      <point x="280" y="881" type="line"/>
      <point x="571" y="583" type="line"/>
      <point x="280" y="283" type="line"/>
      <point x="414" y="147" type="line"/>
      <point x="716" y="440" type="line"/>
    </contour>
  </outline>
</glyph>
<glyph name="Oslash" format="1">
  <advance width="1631"/>
  <unicode hex="00D8"/>
  <outline>
    <contour>
      <point x="474" y="-198" type="line"/>
      <point x="567" y="13" type="line"/>
      <point x="643" y="-10"/>
      <point x="727" y="-21"/>
      <point x="815" y="-21" type="curve" smooth="yes"/>
      <point x="1252" y="-21"/>
      <point x="1554" y="269"/>
      <point x="1554" y="739" type="curve" smooth="yes"/>
      <point x="1554" y="1068"/>
      <point x="1413" y="1304"/>
      <point x="1186" y="1422" type="curve"/>
      <point x="1277" y="1631" type="line"/>
      <point x="1171" y="1672" type="line"/>
      <point x="1081" y="1465" type="line"/>
      <point x="1000" y="1491"/>
      <point x="913" y="1504"/>
      <point x="819" y="1504" type="curve" smooth="yes"/>
      <point x="387" y="1504"/>
      <point x="80" y="1218"/>
      <point x="80" y="739" type="curve" smooth="yes"/>
      <point x="80" y="409"/>
      <point x="228" y="167"/>
      <point x="466" y="52" type="curve"/>
      <point x="374" y="-156" type="line"/>
    </contour>
    <contour>
      <point x="560" y="267" type="line"/>
      <point x="424" y="357"/>
      <point x="355" y="526"/>
      <point x="355" y="737" type="curve" smooth="yes"/>
      <point x="355" y="1052"/>
      <point x="508" y="1283"/>
      <point x="818" y="1283" type="curve" smooth="yes"/>
      <point x="882" y="1283"/>
      <point x="939" y="1273"/>
      <point x="989" y="1255" type="curve"/>
    </contour>
    <contour>
      <point x="818" y="197" type="curve" smooth="yes"/>
      <point x="759" y="197"/>
      <point x="707" y="205"/>
      <point x="659" y="220" type="curve"/>
      <point x="1089" y="1203" type="line"/>
      <point x="1219" y="1110"/>
      <point x="1283" y="941"/>
      <point x="1283" y="737" type="curve" smooth="yes"/>
      <point x="1283" y="419"/>
      <point x="1128" y="197"/>
    </contour>
  </outline>
</glyph>
<glyph name="germandbls" format="1">
  <advance width="1259"/>
  <unicode hex="00DF"/>
  <outline>
    <contour>
      <point x="107" y="0" type="line"/>
      <point x="364" y="0" type="line"/>
      <point x="364" y="1016" type="line" smooth="yes"/>
      <point x="364" y="1187"/>
      <point x="403" y="1298"/>
      <point x="582" y="1298" type="curve" smooth="yes"/>
      <point x="699" y="1298"/>
      <point x="785" y="1242"/>
      <point x="785" y="1143" type="curve" smooth="yes"/>
      <point x="785" y="1025"/>
      <point x="666" y="972"/>
      <point x="573" y="903" type="curve" smooth="yes"/>
      <point x="536" y="874"/>
      <point x="501" y="836"/>
      <point x="501" y="786" type="curve" smooth="yes"/>
      <point x="501" y="726"/>
      <point x="548" y="687"/>
      <point x="589" y="662" type="curve"/>
      <point x="732" y="574"/>
      <point x="943" y="507"/>
      <point x="943" y="345" type="curve" smooth="yes"/>
      <point x="943" y="244"/>
      <point x="880" y="179"/>
      <point x="767" y="179" type="curve" smooth="yes"/>
      <point x="528" y="179" type="line"/>
      <point x="528" y="179"/>
      <point x="504" y="0"/>
      <point x="502" y="0" type="curve" smooth="yes"/>
      <point x="794" y="0" type="line" smooth="yes"/>
      <point x="1026" y="0"/>
      <point x="1202" y="107"/>
      <point x="1202" y="343" type="curve" smooth="yes"/>
      <point x="1202" y="591"/>
      <point x="932" y="699"/>
      <point x="756" y="798" type="curve"/>
      <point x="881" y="876"/>
      <point x="1036" y="965"/>
      <point x="1036" y="1143" type="curve" smooth="yes"/>
      <point x="1036" y="1377"/>
      <point x="826" y="1489"/>
      <point x="583" y="1489" type="curve" smooth="yes"/>
      <point x="274" y="1489"/>
      <point x="107" y="1316"/>
      <point x="107" y="1024" type="curve" smooth="yes"/>
    </contour>
  </outline>
</glyph>
<glyph name="divide" format="1">
  <advance width="1459"/>
  <unicode hex="00F7"/>
  <outline>
    <contour>
      <point x="591" y="21" type="line"/>
      <point x="867" y="21" type="line"/>
      <point x="867" y="281" type="line"/>
      <point x="591" y="281" type="line"/>
    </contour>
    <contour>
      <point x="179" y="489" type="line"/>
      <point x="1277" y="489" type="line"/>
      <point x="1277" y="676" type="line"/>
      <point x="179" y="676" type="line"/>
    </contour>
    <contour>
      <point x="591" y="874" type="line"/>
      <point x="876" y="874" type="line"/>
      <point x="876" y="1133" type="line"/>
      <point x="591" y="1133" type="line"/>
    </contour>
  </outline>
</glyph>
<glyph name="Hbar" format="1">
  <advance width="1491"/>
  <unicode hex="0126"/>
  <outline>
    <contour>
      <point x="130" y="0" type="line"/>
      <point x="399" y="0" type="line"/>
      <point x="399" y="657" type="line"/>
      <point x="1095" y="657" type="line"/>
      <point x="1095" y="0" type="line"/>
      <point x="1364" y="0" type="line"/>
      <point x="1364" y="1178" type="line"/>
      <point x="1449" y="1178" type="line"/>
      <point x="1449" y="1311" type="line"/>
      <point x="1364" y="1311" type="line"/>
      <point x="1364" y="1457" type="line"/>
      <point x="1095" y="1457" type="line"/>
      <point x="1095" y="1311" type="line"/>
      <point x="399" y="1311" type="line"/>
      <point x="399" y="1457" type="line"/>
      <point x="130" y="1457" type="line"/>
      <point x="130" y="1311" type="line"/>
      <point x="45" y="1311" type="line"/>
      <point x="45" y="1178" type="line"/>
      <point x="130" y="1178" type="line"/>
    </contour>
    <contour>
      <point x="399" y="853" type="line"/>
      <point x="399" y="1178" type="line"/>
      <point x="1095" y="1178" type="line"/>
      <point x="1095" y="853" type="line"/>
    </contour>
  </outline>
</glyph>
<glyph name="hbar" format="1">
  <advance width="1190"/>
  <unicode hex="0127"/>
  <outline>
    <contour>
      <point x="106" y="0" type="line"/>
      <point x="362" y="0" type="line"/>
      <point x="362" y="745" type="line"/>
      <point x="411" y="841"/>
      <point x="527" y="926"/>
      <point x="661" y="926" type="curve" smooth="yes"/>
      <point x="808" y="926"/>
      <point x="840" y="838"/>
      <point x="840" y="654" type="curve" smooth="yes"/>
      <point x="840" y="0" type="line"/>
      <point x="1095" y="0" type="line"/>
      <point x="1095" y="667" type="line" smooth="yes"/>
      <point x="1095" y="1001"/>
      <point x="933" y="1119"/>
      <point x="722" y="1119" type="curve" smooth="yes"/>
      <point x="574" y="1119"/>
      <point x="453" y="1069"/>
      <point x="362" y="973" type="curve"/>
      <point x="362" y="1224" type="line"/>
      <point x="660" y="1224" type="line"/>
      <point x="660" y="1360" type="line"/>
      <point x="362" y="1360" type="line"/>
      <point x="362" y="1515" type="line"/>
      <point x="106" y="1496" type="line"/>
      <point x="106" y="1360" type="line"/>
      <point x="5" y="1360" type="line"/>
      <point x="5" y="1224" type="line"/>
      <point x="106" y="1224" type="line"/>
    </contour>
  </outline>
</glyph>
<glyph name="dotlessi" format="1">
  <advance width="549"/>
  <unicode hex="0131"/>
  <outline>
    <contour>
      <point x="129" y="0" type="line"/>
      <point x="385" y="0" type="line"/>
      <point x="385" y="1098" type="line"/>
      <point x="129" y="1098" type="line"/>
    </contour>
  </outline>
</glyph>
<glyph name="lslash" format="1">
  <advance width="680"/>
  <unicode hex="0142"/>
  <outline>
    <contour>
      <point x="517" y="-15" type="curve" smooth="yes"/>
      <point x="564" y="-15"/>
      <point x="670" y="-2"/>
      <point x="682" y="-1" type="curve"/>
      <point x="666" y="189" type="line"/>
      <point x="654" y="188"/>
      <point x="575" y="182"/>
      <point x="563" y="182" type="curve" smooth="yes"/>
      <point x="406" y="182"/>
      <point x="398" y="243"/>
      <point x="398" y="438" type="curve" smooth="yes"/>
      <point x="398" y="847" type="line"/>
      <point x="555" y="944" type="line"/>
      <point x="555" y="1126" type="line"/>
      <point x="398" y="1030" type="line"/>
      <point x="398" y="1515" type="line"/>
      <point x="142" y="1495" type="line"/>
      <point x="142" y="878" type="line"/>
      <point x="30" y="810" type="line"/>
      <point x="30" y="627" type="line"/>
      <point x="142" y="694" type="line"/>
      <point x="142" y="459" type="line" smooth="yes"/>
      <point x="142" y="136"/>
      <point x="199" y="-15"/>
    </contour>
  </outline>
</glyph>
<glyph name="eng" format="1">
  <advance width="1189"/>
  <unicode hex="014B"/>
  <outline>
    <contour>
      <point x="628" y="-373" type="line"/>
      <point x="691" y="-373" type="line" smooth="yes"/>
      <point x="1048" y="-373"/>
      <point x="1096" y="-215"/>
      <point x="1096" y="108" type="curve" smooth="yes"/>
      <point x="1096" y="668" type="line" smooth="yes"/>
      <point x="1096" y="945"/>
      <point x="987" y="1131"/>
      <point x="729" y="1135" type="curve" smooth="yes"/>
      <point x="568" y="1137"/>
      <point x="428" y="1055"/>
      <point x="342" y="952" type="curve"/>
      <point x="321" y="1098" type="line"/>
      <point x="107" y="1098" type="line"/>
      <point x="107" y="5" type="line"/>
      <point x="363" y="5" type="line"/>
      <point x="363" y="753" type="line"/>
      <point x="406" y="844"/>
      <point x="525" y="941"/>
      <point x="651" y="941" type="curve" smooth="yes"/>
      <point x="830" y="941"/>
      <point x="841" y="808"/>
      <point x="841" y="623" type="curve" smooth="yes"/>
      <point x="841" y="45" type="line" smooth="yes"/>
      <point x="841" y="-136"/>
      <point x="818" y="-181"/>
      <point x="657" y="-181" type="curve" smooth="yes"/>
      <point x="601" y="-181" type="line"/>
    </contour>
  </outline>
</glyph>
<glyph name="oe" format="1">
  <advance width="1880"/>
  <unicode hex="0153"/>
  <outline>
    <contour>
      <point x="595" y="-21" type="curve" smooth="yes"/>
      <point x="782" y="-21"/>
      <point x="919" y="61"/>
      <point x="989" y="176" type="curve"/>
      <point x="1064" y="50"/>
      <point x="1205" y="-21"/>
      <point x="1410" y="-21" type="curve" smooth="yes"/>
      <point x="1591" y="-21"/>
      <point x="1700" y="33"/>
      <point x="1794" y="105" type="curve"/>
      <point x="1721" y="261" type="line"/>
      <point x="1653" y="209"/>
      <point x="1556" y="159"/>
      <point x="1416" y="159" type="curve" smooth="yes"/>
      <point x="1226" y="159"/>
      <point x="1114" y="283"/>
      <point x="1110" y="500" type="curve"/>
      <point x="1819" y="500" type="line"/>
      <point x="1819" y="505"/>
      <point x="1821" y="561"/>
      <point x="1821" y="586" type="curve" smooth="yes"/>
      <point x="1821" y="887"/>
      <point x="1695" y="1119"/>
      <point x="1380" y="1119" type="curve" smooth="yes"/>
      <point x="1199" y="1118"/>
      <point x="1064" y="1052"/>
      <point x="992" y="928" type="curve"/>
      <point x="916" y="1044"/>
      <point x="784" y="1119"/>
      <point x="596" y="1119" type="curve" smooth="yes"/>
      <point x="237" y="1119"/>
      <point x="68" y="874"/>
      <point x="68" y="552" type="curve" smooth="yes"/>
      <point x="68" y="240"/>
      <point x="237" y="-21"/>
    </contour>
    <contour>
      <point x="595" y="157" type="curve" smooth="yes"/>
      <point x="424" y="157"/>
      <point x="317" y="310"/>
      <point x="317" y="551" type="curve" smooth="yes"/>
      <point x="317" y="798"/>
      <point x="422" y="941"/>
      <point x="594" y="941" type="curve" smooth="yes"/>
      <point x="766" y="941"/>
      <point x="874" y="807"/>
      <point x="874" y="552" type="curve" smooth="yes"/>
      <point x="874" y="306"/>
      <point x="764" y="157"/>
    </contour>
    <contour>
      <point x="1113" y="646" type="line"/>
      <point x="1129" y="870"/>
      <point x="1252" y="942"/>
      <point x="1364" y="942" type="curve" smooth="yes"/>
      <point x="1509" y="942"/>
      <point x="1586" y="849"/>
      <point x="1587" y="656" type="curve" smooth="yes"/>
      <point x="1587" y="655"/>
      <point x="1587" y="647"/>
      <point x="1587" y="646" type="curve"/>
    </contour>
  </outline>
</glyph>
<glyph name="uni018F" format="1">
  <advance width="1454"/>
  <unicode hex="018F"/>
  <outline>
    <contour>
      <point x="652" y="-21" type="curve" smooth="yes"/>
      <point x="1058" y="-21"/>
      <point x="1347" y="279"/>
      <point x="1347" y="739" type="curve" smooth="yes"/>
      <point x="1347" y="1160"/>
      <point x="1081" y="1489"/>
      <point x="605" y="1489" type="curve" smooth="yes"/>
      <point x="404" y="1489"/>
      <point x="250" y="1447"/>
      <point x="122" y="1348" type="curve"/>
      <point x="207" y="1168" type="line"/>
      <point x="308" y="1227"/>
      <point x="436" y="1274"/>
      <point x="594" y="1274" type="curve" smooth="yes"/>
      <point x="887" y="1274"/>
      <point x="1053" y="1091"/>
      <point x="1071" y="788" type="curve"/>
      <point x="67" y="788" type="line"/>
      <point x="67" y="770"/>
      <point x="65" y="731"/>
      <point x="66" y="703" type="curve" smooth="yes"/>
      <point x="82" y="219"/>
      <point x="293" y="-21"/>
    </contour>
    <contour>
      <point x="663" y="191" type="curve" smooth="yes"/>
      <point x="437" y="191"/>
      <point x="334" y="363"/>
      <point x="317" y="595" type="curve"/>
      <point x="1060" y="595" type="line"/>
      <point x="1024" y="362"/>
      <point x="893" y="191"/>
    </contour>
  </outline>
</glyph>
<glyph name="uni0237" format="1">
  <advance width="528"/>
  <unicode hex="0237"/>
  <outline>
    <contour>
      <point x="-38" y="-362" type="line"/>
      <point x="2" y="-362" type="line" smooth="yes"/>
      <point x="337" y="-362"/>
      <point x="411" y="-214"/>
      <point x="411" y="101" type="curve" smooth="yes"/>
      <point x="411" y="1089" type="line"/>
      <point x="173" y="1089" type="line"/>
      <point x="173" y="57" type="line" smooth="yes"/>
      <point x="173" y="-112"/>
      <point x="156" y="-164"/>
      <point x="-8" y="-164" type="curve" smooth="yes"/>
      <point x="-43" y="-164" type="line"/>
    </contour>
  </outline>
</glyph>
<glyph name="afii57929" format="1">
  <advance width="385"/>
  <unicode hex="02BC"/>
  <outline>
    <contour>
      <point x="109" y="977" type="line"/>
      <point x="251" y="977" type="line"/>
      <point x="306" y="1482" type="line"/>
      <point x="102" y="1482" type="line"/>
    </contour>
  </outline>
</glyph>
<glyph name="circumflex" format="1">
  <advance width="774"/>
  <unicode hex="02C6"/>
  <outline>
    <contour>
      <point x="46" y="1161" type="line"/>
      <point x="225" y="1161" type="line"/>
      <point x="398" y="1379" type="line"/>
      <point x="572" y="1161" type="line"/>
      <point x="757" y="1161" type="line"/>
      <point x="505" y="1545" type="line"/>
      <point x="297" y="1545" type="line"/>
    </contour>
  </outline>
</glyph>
<glyph name="caron" format="1">
  <advance width="772"/>
  <unicode hex="02C7"/>
  <outline>
    <contour>
      <point x="302" y="1192" type="line"/>
      <point x="504" y="1192" type="line"/>
      <point x="767" y="1545" type="line"/>
      <point x="563" y="1545" type="line"/>
      <point x="398" y="1350" type="line"/>
      <point x="238" y="1545" type="line"/>
      <point x="39" y="1545" type="line"/>
    </contour>
  </outline>
</glyph>
<glyph name="ring" format="1">
  <advance width="662"/>
  <unicode hex="02DA"/>
  <outline>
    <contour>
      <point x="330" y="1249" type="curve" smooth="yes"/>
      <point x="260" y="1249"/>
      <point x="223" y="1302"/>
      <point x="223" y="1361" type="curve" smooth="yes"/>
      <point x="223" y="1417"/>
      <point x="263" y="1473"/>
      <point x="330" y="1473" type="curve" smooth="yes"/>
      <point x="399" y="1473"/>
      <point x="437" y="1417"/>
      <point x="437" y="1361" type="curve" smooth="yes"/>
      <point x="437" y="1303"/>
      <point x="398" y="1249"/>
    </contour>
    <contour>
      <point x="330" y="1157" type="curve" smooth="yes"/>
      <point x="469" y="1157"/>
      <point x="550" y="1254"/>
      <point x="550" y="1361" type="curve" smooth="yes"/>
      <point x="550" y="1467"/>
      <point x="472" y="1564"/>
      <point x="330" y="1564" type="curve" smooth="yes"/>
      <point x="189" y="1564"/>
      <point x="109" y="1468"/>
      <point x="109" y="1361" type="curve" smooth="yes"/>
      <point x="109" y="1254"/>
      <point x="191" y="1157"/>
    </contour>
  </outline>
</glyph>
<glyph name="uni0326" format="1">
  <advance width="561"/>
  <unicode hex="0326"/>
  <outline>
    <contour>
      <point x="85" y="-674" type="line"/>
      <point x="253" y="-674" type="line"/>
      <point x="421" y="-157" type="line"/>
      <point x="195" y="-157" type="line"/>
    </contour>
  </outline>
</glyph>
<glyph name="Delta" format="1">
  <advance width="1265"/>
  <unicode hex="0394"/>
  <outline>
    <contour>
      <point x="-10" y="0" type="line"/>
      <point x="1275" y="0" type="line"/>
      <point x="751" y="1502" type="line"/>
      <point x="516" y="1502" type="line"/>
    </contour>
    <contour>
      <point x="277" y="188" type="line"/>
      <point x="633" y="1281" type="line"/>
      <point x="997" y="188" type="line"/>
    </contour>
  </outline>
</glyph>
<glyph name="afii10053" format="1">
  <advance width="1396"/>
  <unicode hex="0404"/>
  <outline>
    <contour>
      <point x="815" y="-19" type="curve" smooth="yes"/>
      <point x="975" y="-19"/>
      <point x="1135" y="27"/>
      <point x="1285" y="115" type="curve"/>
      <point x="1201" y="310" type="line"/>
      <point x="1093" y="237"/>
      <point x="962" y="188"/>
      <point x="835" y="188" type="curve" smooth="yes"/>
      <point x="585" y="188"/>
      <point x="401" y="359"/>
      <point x="365" y="647" type="curve"/>
      <point x="1038" y="647" type="line"/>
      <point x="1038" y="849" type="line"/>
      <point x="369" y="849" type="line"/>
      <point x="413" y="1103"/>
      <point x="584" y="1282"/>
      <point x="836" y="1282" type="curve" smooth="yes"/>
      <point x="963" y="1282"/>
      <point x="1092" y="1232"/>
      <point x="1202" y="1153" type="curve"/>
      <point x="1285" y="1352" type="line"/>
      <point x="1144" y="1444"/>
      <point x="983" y="1489"/>
      <point x="822" y="1489" type="curve" smooth="yes"/>
      <point x="421" y="1489"/>
      <point x="100" y="1191"/>
      <point x="100" y="739" type="curve" smooth="yes"/>
      <point x="100" y="288"/>
      <point x="412" y="-19"/>
    </contour>
  </outline>
</glyph>
<glyph name="afii10058" format="1">
  <advance width="1877"/>
  <unicode hex="0409"/>
  <outline>
    <contour>
      <point x="61" y="-20" type="line"/>
      <point x="116" y="-20" type="line" smooth="yes"/>
      <point x="489" y="-20"/>
      <point x="581" y="120"/>
      <point x="581" y="439" type="curve"/>
      <point x="567" y="1251" type="line"/>
      <point x="877" y="1251" type="line"/>
      <point x="909" y="5" type="line"/>
      <point x="1304" y="5" type="line" smooth="yes"/>
      <point x="1640" y="5"/>
      <point x="1891" y="131"/>
      <point x="1891" y="439" type="curve" smooth="yes"/>
      <point x="1891" y="756"/>
      <point x="1621" y="879"/>
      <point x="1298" y="879" type="curve" smooth="yes"/>
      <point x="1121" y="879" type="line"/>
      <point x="1121" y="1453" type="line"/>
      <point x="321" y="1453" type="line"/>
      <point x="323" y="392" type="line" smooth="yes"/>
      <point x="323" y="238"/>
      <point x="298" y="177"/>
      <point x="136" y="174" type="curve" smooth="yes"/>
      <point x="61" y="172" type="line"/>
    </contour>
    <contour>
      <point x="1141" y="214" type="line"/>
      <point x="1141" y="676" type="line"/>
      <point x="1319" y="676" type="line" smooth="yes"/>
      <point x="1524" y="676"/>
      <point x="1663" y="602"/>
      <point x="1663" y="445" type="curve" smooth="yes"/>
      <point x="1663" y="286"/>
      <point x="1526" y="214"/>
      <point x="1319" y="214" type="curve" smooth="yes"/>
    </contour>
  </outline>
</glyph>
<glyph name="afii10020" format="1">
  <advance width="1460"/>
  <unicode hex="0413"/>
  <outline>
    <contour>
      <point x="130" y="0" type="line"/>
      <point x="399" y="0" type="line"/>
      <point x="399" y="1254" type="line"/>
      <point x="1049" y="1254" type="line"/>
      <point x="1070" y="1457" type="line"/>
      <point x="130" y="1457" type="line"/>
    </contour>
  </outline>
</glyph>
<glyph name="afii10025" format="1">
  <advance width="1251"/>
  <unicode hex="0417"/>
  <outline>
    <contour>
      <point x="626" y="-19" type="curve" smooth="yes"/>
      <point x="1005" y="-19"/>
      <point x="1186" y="148"/>
      <point x="1186" y="413" type="curve" smooth="yes"/>
      <point x="1186" y="557"/>
      <point x="1098" y="694"/>
      <point x="970" y="751" type="curve"/>
      <point x="1075" y="799"/>
      <point x="1150" y="893"/>
      <point x="1150" y="1097" type="curve" smooth="yes"/>
      <point x="1150" y="1320"/>
      <point x="912" y="1491"/>
      <point x="636" y="1491" type="curve" smooth="yes"/>
      <point x="444" y="1491"/>
      <point x="292" y="1451"/>
      <point x="172" y="1351" type="curve"/>
      <point x="269" y="1172" type="line"/>
      <point x="353" y="1232"/>
      <point x="462" y="1274"/>
      <point x="628" y="1274" type="curve" smooth="yes"/>
      <point x="793" y="1274"/>
      <point x="901" y="1173"/>
      <point x="903" y="1064" type="curve" smooth="yes"/>
      <point x="903" y="946"/>
      <point x="790" y="853"/>
      <point x="648" y="853" type="curve" smooth="yes"/>
      <point x="455" y="853" type="line"/>
      <point x="455" y="644" type="line"/>
      <point x="645" y="644" type="line" smooth="yes"/>
      <point x="801" y="644"/>
      <point x="950" y="549"/>
      <point x="950" y="423" type="curve" smooth="yes"/>
      <point x="950" y="286"/>
      <point x="875" y="191"/>
      <point x="629" y="191" type="curve" smooth="yes"/>
      <point x="462" y="191"/>
      <point x="317" y="254"/>
      <point x="226" y="314" type="curve"/>
      <point x="200" y="263"/>
      <point x="160" y="177"/>
      <point x="131" y="129" type="curve"/>
      <point x="228" y="33"/>
      <point x="428" y="-19"/>
    </contour>
  </outline>
</glyph>
<glyph name="afii10042" format="1">
  <advance width="1835"/>
  <unicode hex="0428"/>
  <outline>
    <contour>
      <point x="130" y="0" type="line"/>
      <point x="1712" y="0" type="line"/>
      <point x="1712" y="1457" type="line"/>
      <point x="1443" y="1457" type="line"/>
      <point x="1443" y="197" type="line"/>
      <point x="1073" y="197" type="line"/>
      <point x="1073" y="1457" type="line"/>
      <point x="804" y="1457" type="line"/>
      <point x="804" y="197" type="line"/>
      <point x="399" y="197" type="line"/>
      <point x="399" y="1457" type="line"/>
      <point x="130" y="1457" type="line"/>
    </contour>
  </outline>
</glyph>
<glyph name="afii10043" format="1">
  <advance width="1896"/>
  <unicode hex="0429"/>
  <outline>
    <contour>
      <point x="1621" y="-341" type="line"/>
      <point x="1857" y="-341" type="line"/>
      <point x="1857" y="104" type="line"/>
      <point x="1712" y="104" type="line"/>
      <point x="1712" y="1457" type="line"/>
      <point x="1443" y="1457" type="line"/>
      <point x="1443" y="197" type="line"/>
      <point x="1073" y="197" type="line"/>
      <point x="1073" y="1457" type="line"/>
      <point x="804" y="1457" type="line"/>
      <point x="804" y="197" type="line"/>
      <point x="399" y="197" type="line"/>
      <point x="399" y="1457" type="line"/>
      <point x="130" y="1457" type="line"/>
      <point x="130" y="0" type="line"/>
      <point x="1620" y="0" type="line"/>
    </contour>
  </outline>
</glyph>
<glyph name="afii10046" format="1">
  <advance width="1293"/>
  <unicode hex="042C"/>
  <outline>
    <contour>
      <point x="178" y="11" type="line"/>
      <point x="669" y="11" type="line" smooth="yes"/>
      <point x="1007" y="11"/>
      <point x="1232" y="176"/>
      <point x="1232" y="475" type="curve" smooth="yes"/>
      <point x="1232" y="776"/>
      <point x="996" y="933"/>
      <point x="664" y="933" type="curve" smooth="yes"/>
      <point x="411" y="933" type="line"/>
      <point x="411" y="1453" type="line"/>
      <point x="178" y="1453" type="line"/>
    </contour>
    <contour>
      <point x="411" y="214" type="line"/>
      <point x="411" y="731" type="line"/>
      <point x="685" y="731" type="line" smooth="yes"/>
      <point x="898" y="731"/>
      <point x="1006" y="632"/>
      <point x="1006" y="475" type="curve" smooth="yes"/>
      <point x="1006" y="314"/>
      <point x="899" y="214"/>
      <point x="688" y="214" type="curve" smooth="yes"/>
    </contour>
  </outline>
</glyph>
<glyph name="afii10049" format="1">
  <advance width="1319"/>
  <unicode hex="042F"/>
  <outline>
    <contour>
      <point x="1" y="0" type="curve"/>
      <point x="289" y="0" type="line"/>
      <point x="459" y="359" type="line" smooth="yes"/>
      <point x="488" y="418"/>
      <point x="586" y="608"/>
      <point x="586" y="608" type="curve"/>
      <point x="605" y="609"/>
      <point x="646" y="608"/>
      <point x="715" y="608" type="curve" smooth="yes"/>
      <point x="922" y="608" type="line"/>
      <point x="922" y="0" type="line"/>
      <point x="1191" y="0" type="line"/>
      <point x="1191" y="1457" type="line"/>
      <point x="645" y="1457" type="line" smooth="yes"/>
      <point x="295" y="1457"/>
      <point x="82" y="1369"/>
      <point x="82" y="1044" type="curve" smooth="yes"/>
      <point x="82" y="845"/>
      <point x="178" y="721"/>
      <point x="345" y="658" type="curve"/>
      <point x="297" y="604"/>
      <point x="261" y="527"/>
      <point x="211" y="427" type="curve" smooth="yes"/>
      <point x="191" y="389"/>
      <point x="12" y="23"/>
    </contour>
    <contour>
      <point x="629" y="805" type="line"/>
      <point x="415" y="805"/>
      <point x="333" y="879"/>
      <point x="333" y="1040" type="curve" smooth="yes"/>
      <point x="333" y="1189"/>
      <point x="430" y="1255"/>
      <point x="623" y="1255" type="curve" smooth="yes"/>
      <point x="922" y="1255" type="line"/>
      <point x="922" y="805" type="line"/>
    </contour>
  </outline>
</glyph>
<glyph name="afii10066" format="1">
  <advance width="1089"/>
  <unicode hex="0431"/>
  <outline>
    <contour>
      <point x="107" y="0" type="line"/>
      <point x="636" y="0" type="line" smooth="yes"/>
      <point x="867" y="0"/>
      <point x="1020" y="148"/>
      <point x="1020" y="362" type="curve" smooth="yes"/>
      <point x="1020" y="590"/>
      <point x="839" y="709"/>
      <point x="624" y="709" type="curve" smooth="yes"/>
      <point x="361" y="709" type="line"/>
      <point x="361" y="906" type="line"/>
      <point x="909" y="906" type="line"/>
      <point x="909" y="1098" type="line"/>
      <point x="107" y="1098" type="line"/>
    </contour>
    <contour>
      <point x="362" y="185" type="line"/>
      <point x="362" y="527" type="line"/>
      <point x="615" y="527" type="line" smooth="yes"/>
      <point x="729" y="527"/>
      <point x="788" y="446"/>
      <point x="788" y="364" type="curve" smooth="yes"/>
      <point x="788" y="276"/>
      <point x="725" y="185"/>
      <point x="619" y="185" type="curve" smooth="yes"/>
    </contour>
  </outline>
</glyph>
<glyph name="afii10067" format="1">
  <advance width="1115"/>
  <unicode hex="0432"/>
  <outline>
    <contour>
      <point x="107" y="0" type="line"/>
      <point x="650" y="0" type="line" smooth="yes"/>
      <point x="889" y="0"/>
      <point x="1052" y="105"/>
      <point x="1052" y="319" type="curve" smooth="yes"/>
      <point x="1051" y="428"/>
      <point x="982" y="548"/>
      <point x="857" y="574" type="curve"/>
      <point x="965" y="609"/>
      <point x="1022" y="700"/>
      <point x="1022" y="799" type="curve" smooth="yes"/>
      <point x="1022" y="999"/>
      <point x="866" y="1098"/>
      <point x="629" y="1098" type="curve" smooth="yes"/>
      <point x="107" y="1098" type="line"/>
    </contour>
    <contour>
      <point x="362" y="184" type="line"/>
      <point x="362" y="476" type="line"/>
      <point x="658" y="476" type="line" smooth="yes"/>
      <point x="768" y="476"/>
      <point x="825" y="403"/>
      <point x="826" y="331" type="curve" smooth="yes"/>
      <point x="826" y="253"/>
      <point x="769" y="184"/>
      <point x="658" y="184" type="curve" smooth="yes"/>
    </contour>
    <contour>
      <point x="362" y="647" type="line"/>
      <point x="362" y="904" type="line"/>
      <point x="650" y="904" type="line" smooth="yes"/>
      <point x="748" y="904"/>
      <point x="795" y="844"/>
      <point x="795" y="777" type="curve" smooth="yes"/>
      <point x="795" y="713"/>
      <point x="746" y="647"/>
      <point x="650" y="647" type="curve" smooth="yes"/>
    </contour>
  </outline>
</glyph>
<glyph name="afii10068" format="1">
  <advance width="739"/>
  <unicode hex="0433"/>
  <outline>
    <contour>
      <point x="107" y="0" type="line"/>
      <point x="362" y="0" type="line"/>
      <point x="362" y="901" type="line"/>
      <point x="688" y="901" type="line"/>
      <point x="688" y="1098" type="line"/>
      <point x="107" y="1098" type="line"/>
    </contour>
  </outline>
</glyph>
<glyph name="afii10073" format="1">
  <advance width="1000"/>
  <unicode hex="0437"/>
  <outline>
    <contour>
      <point x="475" y="-21" type="curve" smooth="yes"/>
      <point x="739" y="-21"/>
      <point x="935" y="73"/>
      <point x="935" y="305" type="curve" smooth="yes"/>
      <point x="933" y="418"/>
      <point x="857" y="528"/>
      <point x="746" y="564" type="curve"/>
      <point x="854" y="601"/>
      <point x="906" y="699"/>
      <point x="906" y="803" type="curve" smooth="yes"/>
      <point x="906" y="996"/>
      <point x="715" y="1094"/>
      <point x="458" y="1094" type="curve" smooth="yes"/>
      <point x="322" y="1094"/>
      <point x="159" y="1073"/>
      <point x="70" y="1010" type="curve"/>
      <point x="74" y="1002"/>
      <point x="123" y="839"/>
      <point x="123" y="839" type="curve"/>
      <point x="187" y="882"/>
      <point x="304" y="912"/>
      <point x="456" y="912" type="curve" smooth="yes"/>
      <point x="608" y="912"/>
      <point x="680" y="864"/>
      <point x="680" y="771" type="curve" smooth="yes"/>
      <point x="680" y="700"/>
      <point x="626" y="638"/>
      <point x="514" y="638" type="curve" smooth="yes"/>
      <point x="290" y="638" type="line"/>
      <point x="290" y="460" type="line"/>
      <point x="513" y="460" type="line" smooth="yes"/>
      <point x="636" y="460"/>
      <point x="710" y="403"/>
      <point x="710" y="327" type="curve" smooth="yes"/>
      <point x="710" y="228"/>
      <point x="644" y="169"/>
      <point x="482" y="169" type="curve" smooth="yes"/>
      <point x="334" y="169"/>
      <point x="198" y="203"/>
      <point x="121" y="254" type="curve"/>
      <point x="117" y="243"/>
      <point x="82" y="97"/>
      <point x="77" y="86" type="curve"/>
      <point x="164" y="18"/>
      <point x="303" y="-21"/>
    </contour>
  </outline>
</glyph>
<glyph name="afii10076" format="1">
  <advance width="1128"/>
  <unicode hex="043A"/>
  <outline>
    <contour>
      <point x="107" y="0" type="line"/>
      <point x="362" y="0" type="line"/>
      <point x="362" y="435" type="line"/>
      <point x="809" y="0" type="line"/>
      <point x="1140" y="0" type="line"/>
      <point x="551" y="540" type="line"/>
      <point x="551" y="540"/>
      <point x="738" y="726"/>
      <point x="781" y="771" type="curve"/>
      <point x="848" y="841"/>
      <point x="886" y="903"/>
      <point x="948" y="903" type="curve" smooth="yes"/>
      <point x="973" y="903"/>
      <point x="1045" y="889"/>
      <point x="1051" y="888" type="curve"/>
      <point x="1051" y="1093" type="line"/>
      <point x="1042" y="1094"/>
      <point x="990" y="1108"/>
      <point x="926" y="1108" type="curve" smooth="yes"/>
      <point x="810" y="1108"/>
      <point x="745" y="1057"/>
      <point x="661" y="966" type="curve" smooth="yes"/>
      <point x="609" y="910"/>
      <point x="362" y="653"/>
      <point x="362" y="653" type="curve"/>
      <point x="362" y="1098" type="line"/>
      <point x="107" y="1098" type="line"/>
    </contour>
  </outline>
</glyph>
<glyph name="afii10078" format="1">
  <advance width="1298"/>
  <unicode hex="043C"/>
  <outline>
    <contour>
      <point x="106" y="0" type="line"/>
      <point x="347" y="0" type="line"/>
      <point x="347" y="719" type="line"/>
      <point x="598" y="347" type="line"/>
      <point x="707" y="347" type="line"/>
      <point x="960" y="720" type="line"/>
      <point x="960" y="0" type="line"/>
      <point x="1197" y="0" type="line"/>
      <point x="1197" y="1098" type="line"/>
      <point x="965" y="1098" type="line"/>
      <point x="652" y="633" type="line"/>
      <point x="340" y="1098" type="line"/>
      <point x="106" y="1098" type="line"/>
    </contour>
  </outline>
</glyph>
<glyph name="afii10079" format="1">
  <advance width="1195"/>
  <unicode hex="043D"/>
  <outline>
    <contour>
      <point x="107" y="0" type="line"/>
      <point x="362" y="0" type="line"/>
      <point x="362" y="494" type="line"/>
      <point x="838" y="494" type="line"/>
      <point x="838" y="0" type="line"/>
      <point x="1093" y="0" type="line"/>
      <point x="1093" y="1098" type="line"/>
      <point x="838" y="1098" type="line"/>
      <point x="838" y="688" type="line"/>
      <point x="362" y="688" type="line"/>
      <point x="362" y="1098" type="line"/>
      <point x="107" y="1098" type="line"/>
    </contour>
  </outline>
</glyph>
<glyph name="afii10081" format="1">
  <advance width="1205"/>
  <unicode hex="043F"/>
  <outline>
    <contour>
      <point x="116" y="0" type="line"/>
      <point x="371" y="0" type="line"/>
      <point x="371" y="901" type="line"/>
      <point x="838" y="901" type="line"/>
      <point x="838" y="0" type="line"/>
      <point x="1094" y="0" type="line"/>
      <point x="1094" y="1098" type="line"/>
      <point x="116" y="1098" type="line"/>
    </contour>
  </outline>
</glyph>
<glyph name="afii10085" format="1">
  <advance width="1110"/>
  <unicode hex="0443"/>
  <outline>
    <contour>
      <point x="73" y="-410" type="line"/>
      <point x="194" y="-410" type="line" smooth="yes"/>
      <point x="461" y="-410"/>
      <point x="551" y="-336"/>
      <point x="664" y="-43" type="curve" smooth="yes"/>
      <point x="1101" y="1098" type="line"/>
      <point x="826" y="1098" type="line"/>
      <point x="563" y="330" type="line"/>
      <point x="265" y="1098" type="line"/>
      <point x="-3" y="1098" type="line"/>
      <point x="432" y="38" type="line"/>
      <point x="357" y="-220"/>
      <point x="318" y="-215"/>
      <point x="121" y="-215" type="curve" smooth="yes"/>
      <point x="46" y="-215" type="line"/>
    </contour>
  </outline>
</glyph>
<glyph name="afii10089" format="1">
  <advance width="1173"/>
  <unicode hex="0447"/>
  <outline>
    <contour>
      <point x="815" y="0" type="line"/>
      <point x="1071" y="0" type="line"/>
      <point x="1071" y="1098" type="line"/>
      <point x="815" y="1098" type="line"/>
      <point x="815" y="736" type="line" smooth="yes"/>
      <point x="807" y="671"/>
      <point x="725" y="575"/>
      <point x="553" y="575" type="curve" smooth="yes"/>
      <point x="344" y="575"/>
      <point x="320" y="724"/>
      <point x="320" y="873" type="curve" smooth="yes"/>
      <point x="320" y="1098" type="line"/>
      <point x="65" y="1098" type="line"/>
      <point x="65" y="824" type="line" smooth="yes"/>
      <point x="65" y="552"/>
      <point x="197" y="376"/>
      <point x="506" y="373" type="curve"/>
      <point x="661" y="373"/>
      <point x="760" y="423"/>
      <point x="815" y="489" type="curve"/>
    </contour>
  </outline>
</glyph>
<glyph name="afii10090" format="1">
  <advance width="1480"/>
  <unicode hex="0448"/>
  <outline>
    <contour>
      <point x="107" y="0" type="line"/>
      <point x="1379" y="0" type="line"/>
      <point x="1379" y="1098" type="line"/>
      <point x="1142" y="1098" type="line"/>
      <point x="1142" y="198" type="line"/>
      <point x="864" y="198" type="line"/>
      <point x="864" y="1098" type="line"/>
      <point x="624" y="1098" type="line"/>
      <point x="624" y="198" type="line"/>
      <point x="347" y="198" type="line"/>
      <point x="347" y="1098" type="line"/>
      <point x="107" y="1098" type="line"/>
    </contour>
  </outline>
</glyph>
<glyph name="afii10091" format="1">
  <advance width="1542"/>
  <unicode hex="0449"/>
  <outline>
    <contour>
      <point x="1287" y="-332" type="line"/>
      <point x="1502" y="-332" type="line"/>
      <point x="1502" y="105" type="line"/>
      <point x="1379" y="105" type="line"/>
      <point x="1379" y="1098" type="line"/>
      <point x="1142" y="1098" type="line"/>
      <point x="1142" y="196" type="line"/>
      <point x="864" y="196" type="line"/>
      <point x="864" y="1098" type="line"/>
      <point x="624" y="1098" type="line"/>
      <point x="624" y="196" type="line"/>
      <point x="347" y="196" type="line"/>
      <point x="347" y="1098" type="line"/>
      <point x="107" y="1098" type="line"/>
      <point x="107" y="0" type="line"/>
      <point x="1270" y="0" type="line"/>
    </contour>
  </outline>
</glyph>
<glyph name="afii10092" format="1">
  <advance width="1190"/>
  <unicode hex="044A"/>
  <outline>
    <contour>
      <point x="221" y="0" type="line"/>
      <point x="753" y="0" type="line" smooth="yes"/>
      <point x="984" y="0"/>
      <point x="1133" y="143"/>
      <point x="1133" y="354" type="curve" smooth="yes"/>
      <point x="1133" y="579"/>
      <point x="955" y="695"/>
      <point x="740" y="695" type="curve" smooth="yes"/>
      <point x="476" y="695" type="line"/>
      <point x="476" y="1098" type="line"/>
      <point x="4" y="1098" type="line"/>
      <point x="4" y="907" type="line"/>
      <point x="221" y="907" type="line"/>
    </contour>
    <contour>
      <point x="477" y="185" type="line"/>
      <point x="477" y="513" type="line"/>
      <point x="732" y="513" type="line" smooth="yes"/>
      <point x="846" y="513"/>
      <point x="902" y="434"/>
      <point x="902" y="356" type="curve" smooth="yes"/>
      <point x="902" y="269"/>
      <point x="843" y="185"/>
      <point x="738" y="185" type="curve" smooth="yes"/>
    </contour>
  </outline>
</glyph>
<glyph name="afii10095" format="1">
  <advance width="994"/>
  <unicode hex="044D"/>
  <outline>
    <contour>
      <point x="376" y="-22" type="curve" smooth="yes"/>
      <point x="704" y="-22"/>
      <point x="927" y="190"/>
      <point x="927" y="566" type="curve" smooth="yes"/>
      <point x="927" y="930"/>
      <point x="679" y="1119"/>
      <point x="391" y="1119" type="curve" smooth="yes"/>
      <point x="251" y="1119"/>
      <point x="147" y="1086"/>
      <point x="64" y="1022" type="curve"/>
      <point x="111" y="846" type="line"/>
      <point x="161" y="881"/>
      <point x="266" y="927"/>
      <point x="365" y="927" type="curve" smooth="yes"/>
      <point x="528" y="927"/>
      <point x="647" y="842"/>
      <point x="673" y="641" type="curve"/>
      <point x="177" y="641" type="line"/>
      <point x="177" y="464" type="line"/>
      <point x="673" y="464" type="line"/>
      <point x="645" y="263"/>
      <point x="528" y="168"/>
      <point x="361" y="168" type="curve" smooth="yes"/>
      <point x="262" y="168"/>
      <point x="175" y="205"/>
      <point x="107" y="252" type="curve"/>
      <point x="55" y="73" type="line"/>
      <point x="143" y="13"/>
      <point x="239" y="-22"/>
    </contour>
  </outline>
</glyph>
<glyph name="afii10096" format="1">
  <advance width="1547"/>
  <unicode hex="044E"/>
  <outline>
    <contour>
      <point x="997" y="-21" type="curve" smooth="yes"/>
      <point x="1313" y="-21"/>
      <point x="1482" y="243"/>
      <point x="1482" y="552" type="curve" smooth="yes"/>
      <point x="1482" y="870"/>
      <point x="1321" y="1119"/>
      <point x="997" y="1119" type="curve" smooth="yes"/>
      <point x="705" y="1119"/>
      <point x="543" y="916"/>
      <point x="507" y="642" type="curve"/>
      <point x="362" y="642" type="line"/>
      <point x="362" y="1098" type="line"/>
      <point x="107" y="1098" type="line"/>
      <point x="107" y="0" type="line"/>
      <point x="362" y="0" type="line"/>
      <point x="362" y="460" type="line"/>
      <point x="507" y="460" type="line"/>
      <point x="541" y="196"/>
      <point x="701" y="-21"/>
    </contour>
    <contour>
      <point x="997" y="168" type="curve" smooth="yes"/>
      <point x="825" y="168"/>
      <point x="750" y="349"/>
      <point x="750" y="549" type="curve" smooth="yes"/>
      <point x="750" y="751"/>
      <point x="829" y="930"/>
      <point x="997" y="930" type="curve" smooth="yes"/>
      <point x="1177" y="930"/>
      <point x="1233" y="762"/>
      <point x="1233" y="550" type="curve" smooth="yes"/>
      <point x="1233" y="350"/>
      <point x="1171" y="168"/>
    </contour>
  </outline>
</glyph>
<glyph name="endash" format="1">
  <advance width="1270"/>
  <unicode hex="2013"/>
  <outline>
    <contour>
      <point x="88" y="460" type="line"/>
      <point x="1188" y="460" type="line"/>
      <point x="1188" y="645" type="line"/>
      <point x="88" y="645" type="line"/>
    </contour>
  </outline>
</glyph>
<glyph name="quoteright" format="1">
  <advance width="441"/>
  <unicode hex="2019"/>
  <outline>
    <contour>
      <point x="59" y="1012" type="line"/>
      <point x="227" y="1012" type="line"/>
      <point x="386" y="1505" type="line"/>
      <point x="167" y="1505" type="line"/>
    </contour>
  </outline>
</glyph>
<glyph name="quotedblright" format="1">
  <advance width="955"/>
  <unicode hex="201D"/>
  <outline>
    <contour>
      <point x="176" y="1012" type="line"/>
      <point x="347" y="1012" type="line"/>
      <point x="495" y="1505" type="line"/>
      <point x="285" y="1505" type="line"/>
    </contour>
    <contour>
      <point x="477" y="1012" type="line"/>
      <point x="637" y="1012" type="line"/>
      <point x="796" y="1505" type="line"/>
      <point x="576" y="1505" type="line"/>
    </contour>
  </outline>
</glyph>
<glyph name="quotedblbase" format="1">
  <advance width="1007"/>
  <unicode hex="201E"/>
  <outline>
    <contour>
      <point x="159" y="-280" type="line"/>
      <point x="332" y="-280" type="line"/>
      <point x="502" y="212" type="line"/>
      <point x="269" y="212" type="line"/>
    </contour>
    <contour>
      <point x="512" y="-280" type="line"/>
      <point x="694" y="-280" type="line"/>
      <point x="857" y="212" type="line"/>
      <point x="631" y="212" type="line"/>
    </contour>
  </outline>
</glyph>
<glyph name="daggerdbl" format="1">
  <advance width="996"/>
  <unicode hex="2021"/>
  <outline>
    <contour>
      <point x="402" y="-26" type="line"/>
      <point x="604" y="-26" type="line"/>
      <point x="604" y="365" type="line"/>
      <point x="876" y="365" type="line"/>
      <point x="876" y="528" type="line"/>
      <point x="604" y="528" type="line"/>
      <point x="603" y="959" type="line"/>
      <point x="879" y="959" type="line"/>
      <point x="879" y="1122" type="line"/>
      <point x="603" y="1122" type="line"/>
      <point x="603" y="1478" type="line"/>
      <point x="402" y="1478" type="line"/>
      <point x="402" y="1122" type="line"/>
      <point x="129" y="1122" type="line"/>
      <point x="129" y="959" type="line"/>
      <point x="402" y="959" type="line"/>
      <point x="402" y="528" type="line"/>
      <point x="126" y="528" type="line"/>
      <point x="126" y="365" type="line"/>
      <point x="402" y="365" type="line"/>
    </contour>
  </outline>
</glyph>
<glyph name="guilsinglleft" format="1">
  <advance width="584"/>
  <unicode hex="2039"/>
  <outline>
    <contour>
      <point x="320" y="174" type="line"/>
      <point x="522" y="174" type="line"/>
      <point x="267" y="568" type="line"/>
      <point x="529" y="965" type="line"/>
      <point x="326" y="965" type="line"/>
      <point x="54" y="568" type="line"/>
    </contour>
  </outline>
</glyph>
<glyph name="guilsinglright" format="1">
  <advance width="584"/>
  <unicode hex="203A"/>
  <outline>
    <contour>
      <point x="55" y="174" type="line"/>
      <point x="256" y="174" type="line"/>
      <point x="532" y="569" type="line"/>
      <point x="263" y="965" type="line"/>
      <point x="62" y="965" type="line"/>
      <point x="315" y="569" type="line"/>
    </contour>
  </outline>
</glyph>
<glyph name="Euro" format="1">
  <advance width="1210"/>
  <unicode hex="20AC"/>
  <outline>
    <contour>
      <point x="773" y="-20" type="curve" smooth="yes"/>
      <point x="914" y="-20"/>
      <point x="1019" y="20"/>
      <point x="1113" y="86" type="curve"/>
      <point x="1114" y="294" type="line"/>
      <point x="1014" y="213"/>
      <point x="905" y="172"/>
      <point x="801" y="172" type="curve" smooth="yes"/>
      <point x="621" y="172"/>
      <point x="485" y="300"/>
      <point x="446" y="514" type="curve"/>
      <point x="963" y="514" type="line"/>
      <point x="987" y="689" type="line"/>
      <point x="426" y="689" type="line"/>
      <point x="426" y="702"/>
      <point x="425" y="744"/>
      <point x="426" y="769" type="curve" smooth="yes"/>
      <point x="426" y="773"/>
      <point x="560" y="777"/>
      <point x="560" y="780" type="curve"/>
      <point x="997" y="807" type="line"/>
      <point x="886" y="958" type="line"/>
      <point x="895" y="1017"/>
      <point x="491" y="1057"/>
      <point x="546" y="1057" type="curve"/>
      <point x="588" y="1206"/>
      <point x="731" y="1288"/>
      <point x="872" y="1271" type="curve" smooth="yes"/>
      <point x="950" y="1271"/>
      <point x="1029" y="1277"/>
      <point x="1084" y="1194" type="curve"/>
      <point x="1066" y="1210"/>
      <point x="1091" y="1369"/>
      <point x="1061" y="1369" type="curve"/>
      <point x="917" y="1437"/>
      <point x="784" y="1417"/>
      <point x="665" y="1338" type="curve" smooth="yes"/>
      <point x="406" y="1338"/>
      <point x="242" y="1162"/>
      <point x="196" y="957" type="curve"/>
      <point x="100" y="930" type="line"/>
      <point x="105" y="780" type="line"/>
      <point x="104" y="771"/>
      <point x="199" y="761"/>
      <point x="199" y="752" type="curve"/>
      <point x="199" y="748"/>
      <point x="199" y="693"/>
      <point x="199" y="689" type="curve"/>
      <point x="106" y="689" type="line"/>
      <point x="80" y="514" type="line"/>
      <point x="217" y="514" type="line"/>
      <point x="262" y="232"/>
      <point x="422" y="-20"/>
    </contour>
  </outline>
</glyph>
<glyph name="trademark" format="1">
  <advance width="1822"/>
  <unicode hex="2122"/>
  <outline>
    <contour>
      <point x="800" y="668" type="line"/>
      <point x="965" y="668" type="line"/>
      <point x="965" y="1208" type="line"/>
      <point x="1175" y="685" type="line"/>
      <point x="1280" y="685" type="line"/>
      <point x="1501" y="1214" type="line"/>
      <point x="1501" y="668" type="line"/>
      <point x="1662" y="668" type="line"/>
      <point x="1662" y="1469" type="line"/>
      <point x="1462" y="1469" type="line"/>
      <point x="1234" y="924" type="line"/>
      <point x="1017" y="1469" type="line"/>
      <point x="800" y="1469" type="line"/>
    </contour>
    <contour>
      <point x="322" y="668" type="line"/>
      <point x="489" y="668" type="line"/>
      <point x="489" y="1323" type="line"/>
      <point x="735" y="1323" type="line"/>
      <point x="735" y="1469" type="line"/>
      <point x="69" y="1469" type="line"/>
      <point x="70" y="1323" type="line"/>
      <point x="322" y="1323" type="line"/>
    </contour>
  </outline>
</glyph>
<glyph name="lessequal" format="1">
  <advance width="1225"/>
  <unicode hex="2264"/>
  <outline>
    <contour>
      <point x="1083" y="224" type="line"/>
      <point x="1083" y="415" type="line"/>
      <point x="386" y="744" type="line"/>
      <point x="1083" y="1082" type="line"/>
      <point x="1083" y="1272" type="line"/>
      <point x="145" y="801" type="line"/>
      <point x="145" y="685" type="line"/>
    </contour>
    <contour>
      <point x="138" y="2" type="line"/>
      <point x="1089" y="2" type="line"/>
      <point x="1089" y="158" type="line"/>
      <point x="138" y="157" type="line"/>
    </contour>
  </outline>
</glyph>
<glyph name="lozenge" format="1">
  <advance width="1229"/>
  <unicode hex="25CA"/>
  <outline>
    <contour>
      <point x="547" y="-46" type="line"/>
      <point x="676" y="-46" type="line"/>
      <point x="1136" y="728" type="line"/>
      <point x="685" y="1504" type="line"/>
      <point x="555" y="1504" type="line"/>
      <point x="98" y="727" type="line"/>
    </contour>
    <contour>
      <point x="611" y="150" type="curve"/>
      <point x="507" y="341"/>
      <point x="400" y="535"/>
      <point x="296" y="729" type="curve"/>
      <point x="401" y="918"/>
      <point x="514" y="1108"/>
      <point x="622" y="1305" type="curve"/>
      <point x="724" y="1113"/>
      <point x="833" y="921"/>
      <point x="937" y="728" type="curve"/>
      <point x="832" y="539"/>
      <point x="720" y="348"/>
    </contour>
  </outline>
</glyph>
<glyph name="uniFB01" format="1">
  <advance width="1185"/>
  <unicode hex="FB01"/>
  <outline>
    <contour>
      <point x="183" y="0" type="line"/>
      <point x="439" y="0" type="line"/>
      <point x="439" y="941" type="line"/>
      <point x="809" y="941" type="line"/>
      <point x="809" y="0" type="line"/>
      <point x="1065" y="0" type="line"/>
      <point x="1065" y="1098" type="line"/>
      <point x="439" y="1098" type="line"/>
      <point x="439" y="1101"/>
      <point x="439" y="1163"/>
      <point x="439" y="1166" type="curve" smooth="yes"/>
      <point x="439" y="1302"/>
      <point x="457" y="1353"/>
      <point x="597" y="1353" type="curve" smooth="yes"/>
      <point x="667" y="1353" type="line"/>
      <point x="645" y="1544" type="line"/>
      <point x="578" y="1544" type="line" smooth="yes"/>
      <point x="232" y="1544"/>
      <point x="185" y="1407"/>
      <point x="183" y="1131" type="curve" smooth="yes"/>
      <point x="183" y="1128"/>
      <point x="183" y="1101"/>
      <point x="183" y="1098" type="curve"/>
      <point x="10" y="1098" type="line"/>
      <point x="10" y="941" type="line"/>
      <point x="183" y="941" type="line"/>
    </contour>
    <contour>
      <point x="809" y="1258" type="line"/>
      <point x="1065" y="1258" type="line"/>
      <point x="1065" y="1482" type="line"/>
      <point x="809" y="1482" type="line"/>
    </contour>
  </outline>
</glyph>
<glyph name="commaaccentcomb" format="1">
  <advance width="561"/>
  <outline>
    <contour>
      <point x="85" y="-669" type="line"/>
      <point x="253" y="-669" type="line"/>
      <point x="421" y="-152" type="line"/>
      <point x="196" y="-152" type="line"/>
    </contour>
  </outline>
</glyph>
